  <svg id="logo" data-name="logo" xmlns="http://www.w3.org/2000/svg" viewBox="0 0 162.69 103.16">
    <defs>
      <style>
        .cls-1 {
          stroke: #000;
          stroke-width: 1px;
        }

        .cls-1,
        .cls-2 {
          fill: none;
          stroke-linecap: round;

        }

        .cls-2 {
          stroke: #000;
          stroke-width: 3px;
        }
      </style>
    </defs>
    <g>
      <path class="cls-2" d="M1.5,79.35c.63,1.84,3.17,3.35,6.3,3.38,10.19,.1,14.59-8.39,19.19-18.29l4.11-8.78c1.93-4.13,3.57-8.49,6.87-12.08h0" />
      <path class="cls-2" d="M20.26,50.64c1.65,.67,3.88,3.47,3.84,7.08-.05,5.27-5.13,9.72-10.99,9.67,0,0-10.48-.28-10.38-10.7,.11-11.25,12.31-17.35,22.61-17.43,12.08,.12,22.19,8.27,22.09,18.57-.03,9.18-7.79,15.97-15.26,16.85,4.95,9.05,8.57,26.85,22.25,26.98,6.16,.06,9.75-3.7,9.96-7.25,.14-2.07-1.03-3.98-2.26-5.11" />
      <path class="cls-2" d="M64.68,61l-6.77,14.45c-.42,.94-.67,1.83-.67,2.36-.01,1.42,.87,2.08,2.41,2.1,3.32,.03,5.07-4.1,5.56-5.1m-2.31-10.73c.01-1.36-1.06-2.05-2.6-2.07-2.96-.03-4.71,3.64-5.35,5.05l-4.19,8.69c-.41,.85-.64,1.7-.65,2.21-.01,1.36,1.06,2.05,2.6,2.07,2.57,.02,4.3-2.79,5.06-4.32M126.96,21.53l-6.77,14.45c-.42,.94-.67,1.83-.67,2.36-.01,1.42,1.2,2.61,2.74,2.62,3.32,.03,4.75-4.62,5.23-5.62m-2.05-11.03c.01-1.42-1.1-2.14-2.7-2.16-3.08-.03-4.89,3.8-5.56,5.28l-4.35,9.08c-.42,.88-.67,1.77-.67,2.3-.01,1.42,1.1,2.14,2.7,2.16,2.67,.03,4.47-2.92,5.26-4.51m-47.99,39c-.42,.94-.67,1.83-.67,2.36-.01,1.42,.87,2.08,2.41,2.1,3.32,.03,5.07-4.1,5.56-5.1m6.76,.64c-.42,.94-.67,1.83-.67,2.36-.01,1.42,.87,2.08,2.41,2.1,3.32,.03,5.07-4.1,5.56-5.1" />
      <path class="cls-2" d="M64.7,75.83l13-27.65" />
      <path class="cls-2" d="M63.83,77.96c-.01,1.36,1.1,2.05,2.7,2.07,3.08,.03,4.89-3.64,5.56-5.05l4.35-8.7c.42-.85,.67-1.7,.67-2.21,.01-1.36-.87-2.05-2.46-2.06-2.9-.03-4.95,3.19-5.67,4.77h-.06" />
      <path class="cls-2" d="M79.4,74.83l13-27.65" />
      <path class="cls-2" d="M78,77.53c-.01,1.36,1.1,2.49,2.7,2.5,3.08,.03,4.89-3.64,5.56-5.05l4.35-8.7c.42-.85,.67-1.7,.67-2.21,.01-1.36-.87-2.05-2.46-2.06-2.9-.03-4.95,3.19-5.67,4.77h-.06" />
      <path class="cls-2" d="M103.49,73.2c-.85,2.18-4.2,6.83-6.88,6.83s-3.67-.36-3.65-2.9c0-.95,.25-1.95,.8-3.07l6.77-14.44m3.3-4.23c-.95,0-1.47-.72-1.29-1.61,.13-.89,1.02-1.65,1.85-1.64,.89,0,1.53,.78,1.34,1.67-.18,.89-1.02,1.59-1.91,1.58Z" />
      <path class="cls-2" d="M94.2,56.68c-.41-.72-.75-1.9-.74-2.97,.03-3.43,3.51-7.61,9.37-7.55,4.8,.05,8.98,2.63,13.16,4.98l3.21,2.07c2.89,1.57,5.83,2.84,8.97,2.87,2.72,.03,4.93-1.08,6-2.43m-17.87-7.06l-2.05,4.42-.79,1.65-10.88,23.11c-.85,1.95-1.28,3.96-1.36,6.2-.01,7.76,5.95,15.99,17.5,16.1,12.61,.06,19.98-9.05,20.07-17.52,.06-6.16-4.74-11.89-11.67-11.96-6.46-.06-10.64,4.04-10.75,9.02,.04,1.95,.68,2.85,1.45,3.75" />
      <path class="cls-2" d="M114.25,33.42c-1.21,2.72-3.36,7.5-6.97,7.47-4.33-.04-6.65-2.55-4.02-7.94l2.55-6.16c.69-1.49,2.58-5.24,5.98-5.2,2.94,.03,3.7,2.78,2.34,5.46-1.98,3.89-3.51,5.08-6.15,5.13-.98,.02-2.01-.33-2.62-.9,0,0-.81-.58-.66-1.78" />
      <path class="cls-2" d="M157.24,13.59c2.61-.15,3.93-2.45,3.95-4.11,.02-2.07-1.38-4.1-5.23-4.14-4.32-.04-8.68,3.59-11.7,9.96l-9.91,21.11c-.42,.94-.67,1.83-.67,2.36-.01,1.42,.87,2.08,2.41,2.1,3.32,.03,5.07-4.1,5.56-5.1m-6.96,0l4.35-9.26c.42-.94,.67-1.71,.67-2.3,.01-1.42-1.1-2.14-2.7-2.16-3.08-.03-4.89,3.8-5.56,5.28l-4.35,9.08c-.42,.88-.67,1.77-.67,2.3-.01,1.42,1.1,2.14,2.7,2.16,2.67,.03,4.47-2.92,5.26-4.51l.3-.59Z" />
      <path class="cls-2" d="M69.86,13.69s8.85,1.22,8.58,9.64-11.28,9.03-11.28,9.03c0,0-11.73,.27-13.75-10.65S61.44,5.47,61.44,5.47c0,0,7.89-6.61,21.17-2.76,8.65,2.46,12.69,8.68,13.35,10.04s3.77,9.43,0,17.2-7.35,10.71-12.4,12.94-12.67,3.01-17.53,1.51c-4.19-1.3-11.87-5.22-14.36-5.63-1.15-.19-2.29-.28-2.76-.3-1.54-.09-4.42-.11-4.73,2.27-.4,3.1,4.25,3.66,4.25,3.66,0,0,8.88,.92,14.25-5.82s12.22-23.5,12.99-24.94c2.62-4.94,4.35-9.94,6.44-11.06" />
    </g>
    <g>
      <polygon class="cls-1" points="29.05 17.51 30.17 19.56 32.22 20.68 30.17 21.81 29.05 23.86 27.93 21.81 25.88 20.68 27.93 19.56 29.05 17.51" />
      <polygon class="cls-1" points="82.57 91.74 83.69 93.79 85.74 94.91 83.69 96.03 82.57 98.08 81.45 96.03 79.4 94.91 81.45 93.79 82.57 91.74" />
      <polygon class="cls-1" points="149.05 48.95 150.17 51 152.22 52.12 150.17 53.24 149.05 55.29 147.93 53.24 145.88 52.12 147.93 51 149.05 48.95" />
    </g>
  </svg>