<svg xmlns="http://www.w3.org/2000/svg" xmlns:xlink="http://www.w3.org/1999/xlink" width="439" height="439" viewBox="0 0 439 439" fill="none"><path id="减去顶层" fill-rule="evenodd" style="fill:#000000" transform="translate(-0.000001595959474798292 -0.0000033737692319846246)  rotate(0 219.5 219.5)" opacity="1" d="M219.5 0C340.73 0 439 98.27 439 219.5C439 340.73 340.73 439 219.5 439C98.27 439 0 340.73 0 219.5C0 98.27 98.27 0 219.5 0ZM223.142 60.4719L231.542 60.4719L231.542 45.1119C231.542 45.1119 231.542 41.2719 228.542 40.1919C228.542 40.1919 231.962 38.8719 231.962 34.0719L231.962 29.5719C231.962 29.5719 231.962 21.6519 224.522 21.6519L209.582 21.6519L209.582 60.4719L217.982 60.4719L217.982 44.5719L222.002 44.5719C222.002 44.5719 223.142 44.5719 223.142 45.7719L223.142 60.4719ZM222.422 27.3519L217.982 27.3519L217.982 38.6919L222.422 38.6919C222.902 38.6919 223.232 38.3319 223.232 38.3319C223.562 37.9719 223.562 37.4919 223.562 37.4919L223.562 28.5519C223.562 28.0719 223.232 27.7119 223.232 27.7119C222.902 27.3519 222.422 27.3519 222.422 27.3519ZM179.032 58.1544L169.211 28.2246L161.23 30.8435L171.276 61.4575C171.276 61.4575 171.425 61.9136 171.224 62.3585C171.224 62.3585 171.023 62.8035 170.567 62.9531L167.488 63.9633C167.488 63.9633 167.032 64.1129 166.606 63.8738C166.606 63.8738 166.18 63.6346 166.031 63.1785L155.985 32.5646L148.004 35.1836L157.825 65.1134C157.825 65.1134 160.294 72.6386 167.363 70.3189L174.433 67.9993C174.433 67.9993 181.502 65.6796 179.032 58.1544ZM327.83 69.893L331.918 64.3345C331.918 64.3345 332.202 63.9478 332.681 63.8533C332.681 63.8533 333.16 63.7588 333.547 64.0432L336.205 65.9984C336.205 65.9984 336.592 66.2828 336.645 66.7683C336.645 66.7683 336.697 67.2538 336.413 67.6405L334.6 70.1056L341.028 74.8336L342.735 72.5135C342.735 72.5135 347.427 66.1333 341.434 61.7252L336.068 57.7793C336.068 57.7793 330.075 53.3712 325.382 59.7515L320.797 65.9867C320.797 65.9867 316.104 72.3669 322.098 76.775L326.448 79.9744C326.448 79.9744 326.835 80.2588 326.887 80.7443C326.887 80.7443 326.94 81.2298 326.655 81.6165L322.141 87.7551C322.141 87.7551 321.856 88.1417 321.377 88.2362C321.377 88.2362 320.898 88.3307 320.511 88.0463L317.514 85.8423C317.514 85.8423 317.128 85.5579 317.075 85.0724C317.075 85.0724 317.023 84.5868 317.307 84.2002L319.867 80.72L313.438 75.992L311.056 79.2305C311.056 79.2305 306.364 85.6107 312.357 90.0188L318.061 94.2135C318.061 94.2135 324.054 98.6216 328.747 92.2414L333.688 85.5228C333.688 85.5228 338.31 79.2393 332.387 74.7345L328.037 71.5351C328.037 71.5351 327.65 71.2507 327.598 70.7652C327.598 70.7652 327.545 70.2797 327.83 69.893ZM99.5545 62.5903C99.5545 62.5903 93.561 66.9983 98.2534 73.3785L112.58 92.8576C112.58 92.8576 117.272 99.2378 123.266 94.8297L129.694 90.1017C129.694 90.1017 135.688 85.6936 130.995 79.3134L116.669 59.8344C116.669 59.8344 111.977 53.4542 105.983 57.8623L99.5545 62.5903ZM104.416 67.58L119.915 88.6541C120.2 89.0408 120.679 89.1352 120.679 89.1352C121.158 89.2297 121.545 88.9453 121.545 88.9453L124.59 86.7058C124.976 86.4214 125.029 85.9358 125.029 85.9358C125.082 85.4503 124.797 85.0636 124.797 85.0636L109.298 63.9896C109.013 63.6029 108.534 63.5084 108.534 63.5084C108.055 63.4139 107.668 63.6983 107.668 63.6983L104.623 65.9379C104.237 66.2223 104.184 66.7078 104.184 66.7078C104.132 67.1933 104.416 67.58 104.416 67.58ZM90.01 274.17C86.42 265.68 83.7 256.93 81.86 247.9C79.95 238.6 79 229.13 79 219.5C79 209.87 79.95 200.4 81.86 191.1C83.7 182.07 86.42 173.32 90.01 164.83C93.54 156.49 97.85 148.54 102.95 141C108.01 133.51 113.74 126.56 120.15 120.15C126.56 113.74 133.51 108.01 141 102.95C148.54 97.85 156.49 93.54 164.83 90.01C173.32 86.42 182.07 83.7 191.1 81.86C200.4 79.95 209.87 79 219.5 79C229.13 79 238.6 79.95 247.9 81.86C256.93 83.7 265.68 86.42 274.17 90.01C282.51 93.54 290.46 97.85 298 102.95C305.49 108.01 312.44 113.74 318.85 120.15C325.26 126.56 330.99 133.51 336.05 141C341.15 148.54 345.46 156.49 348.99 164.83C352.58 173.32 355.3 182.07 357.14 191.1C359.05 200.4 360 209.87 360 219.5C360 229.13 359.05 238.6 357.14 247.9C355.3 256.93 352.58 265.68 348.99 274.17C345.46 282.51 341.15 290.46 336.05 298C330.99 305.49 325.26 312.44 318.85 318.85C312.44 325.26 305.49 330.99 298 336.05C290.46 341.15 282.51 345.46 274.17 348.99C265.68 352.58 256.93 355.3 247.9 357.14C238.6 359.05 229.13 360 219.5 360C209.87 360 200.4 359.05 191.1 357.14C182.07 355.3 173.32 352.58 164.83 348.99C156.49 345.46 148.54 341.15 141 336.05C133.51 330.99 126.56 325.26 120.15 318.85C113.74 312.44 108.01 305.49 102.95 298C97.85 290.46 93.54 282.51 90.01 274.17ZM60.3122 101.838L70.818 115.006L54.9465 109.36L50.3473 115.808L75.2665 123.338L86.7943 131.561L91.6722 124.722L80.1444 116.5L64.9113 95.3898L60.3122 101.838ZM373.608 101.496L342.004 124.039L346.882 130.877L378.486 108.334L373.608 101.496ZM400.065 159.384L369.824 168.823L372.326 176.841L402.568 167.403L404.445 173.417L411.261 171.289L405.004 151.243L398.188 153.37L400.065 159.384ZM22.3935 220.289L22.6177 235.707L61.4336 235.143L61.2094 219.724C61.2094 219.724 61.1012 212.285 53.182 212.4L30.2044 212.734C30.2044 212.734 22.2853 212.85 22.3935 220.289ZM401.138 232.075L401.264 223.376L410.383 223.509L410.248 232.808L417.087 232.908L417.345 215.209L378.529 214.645L378.271 232.343L385.231 232.444L385.366 223.145L394.665 223.28L394.538 231.979L401.138 232.075ZM28.195 227.225L55.5521 226.827L55.4805 221.908C55.4735 221.428 55.1088 221.103 55.1088 221.103C54.744 220.778 54.2641 220.785 54.2641 220.785L29.3067 221.148C28.8268 221.155 28.4716 221.491 28.4716 221.491C28.1164 221.826 28.1234 222.306 28.1234 222.306L28.195 227.225ZM29.1424 285.274L31.8772 293.216L68.5822 280.578L62.8588 263.955L56.1645 266.26L59.1532 274.94L29.1424 285.274ZM376.107 335.795C376.107 335.795 376.194 336.276 375.904 336.658L373.947 339.24C373.947 339.24 373.657 339.622 373.171 339.668C373.171 339.668 372.684 339.713 372.302 339.423L346.626 319.958L341.552 326.652L366.653 345.682C366.653 345.682 372.965 350.467 377.459 344.538L381.954 338.609C381.954 338.609 386.449 332.681 380.138 327.896L355.036 308.866L349.961 315.559L375.637 335.025C375.637 335.025 376.019 335.315 376.107 335.795ZM58.0938 344.718L89.0288 321.265L83.954 314.571L53.0191 338.024L58.0938 344.718ZM321.769 384.773C321.769 384.773 326.274 391.287 332.393 387.055L338.956 382.516C338.956 382.516 345.076 378.284 340.571 371.77L326.817 351.883C326.817 351.883 322.312 345.369 316.193 349.6L309.63 354.139C309.63 354.139 303.51 358.371 308.015 364.885L321.769 384.773ZM116.867 352.588L98.9499 378.496L105.859 383.274L124.185 356.774C124.185 356.774 124.458 356.379 124.935 356.27C124.935 356.27 125.411 356.162 125.806 356.435L128.47 358.278C128.47 358.278 128.865 358.551 128.932 359.035C128.932 359.035 128.999 359.519 128.726 359.913L110.399 386.414L117.308 391.191L135.225 365.283C135.225 365.283 139.73 358.769 133.61 354.538L127.491 350.306C127.491 350.306 121.372 346.074 116.867 352.588ZM334.448 378.265C334.515 377.782 334.242 377.387 334.242 377.387L319.362 355.871C319.089 355.476 318.613 355.368 318.613 355.368C318.137 355.259 317.742 355.532 317.742 355.532L314.633 357.682C314.238 357.955 314.172 358.439 314.172 358.439C314.105 358.923 314.378 359.318 314.378 359.318L329.258 380.834C329.531 381.229 330.007 381.337 330.007 381.337C330.483 381.445 330.878 381.172 330.878 381.172L333.987 379.022C334.382 378.749 334.448 378.265 334.448 378.265ZM284.651 381.294L296.172 408.357L303.996 406.039L286.93 370.607L277.782 373.316L280.808 397.263L270.304 375.532L261.157 378.241L266.141 417.252L273.965 414.934L268.888 385.963L281.502 412.702L288.635 410.589L284.651 381.294ZM162.402 378.917L160.425 385.59C160.425 385.59 159.01 390.365 162.358 392.796C162.358 392.796 158.704 393.09 157.341 397.692L156.335 401.087C156.335 401.087 154.086 408.68 161.219 410.793L175.544 415.037L186.57 377.815L171.785 373.436C171.785 373.436 164.651 371.323 162.402 378.917ZM170.728 380.382L168.257 388.724C168.121 389.184 168.335 389.623 168.335 389.623C168.549 390.062 169.01 390.198 169.01 390.198L173.727 391.595L176.88 380.952L172.162 379.555C171.702 379.419 171.283 379.67 171.283 379.67C170.865 379.922 170.728 380.382 170.728 380.382ZM166.921 396.087C166.502 396.339 166.366 396.799 166.366 396.799L164.099 404.45C163.963 404.91 164.177 405.349 164.177 405.349C164.391 405.788 164.852 405.925 164.852 405.925L169.109 407.186L172.057 397.233L167.8 395.972C167.34 395.836 166.921 396.087 166.921 396.087Z " /></svg>