<svg xmlns="http://www.w3.org/2000/svg" xmlns:xlink="http://www.w3.org/1999/xlink" width="486" height="485" viewBox="0 0 486 485" fill="none"><g opacity="1" transform="translate(9.75373268374824e-7 -0.0000018045850538328523)  rotate(0 242.85827263631035 242.07698998301305)"><path id="T" fill-rule="evenodd" style="fill:#000000" transform="translate(308.70093291159037 457.21859232959144)  rotate(162.29508196721315 3.5 6.47)" opacity="1" d="M2.1,2.38L2.1,12.94L4.9,12.94L4.9,2.38L7,2.38L7,0L0,0L0,2.38L2.1,2.38Z " /><path id="I" fill-rule="evenodd" style="fill:#000000" transform="translate(333.2313600367344 448.7439314216735)  rotate(156.39344262295083 1.4 6.47)" opacity="1" d="M0,0L0,12.94L2.8,12.94L2.8,0L0,0Z " /><path id="B" fill-rule="evenodd" style="fill:#000000" transform="translate(352.46814006146474 437.9074755145604)  rotate(150.49180327868856 3.8099999999999996 6.47)" opacity="1" d="M4.98 0C7.46 0 7.46 2.64 7.46 2.64L7.46 3.82C7.46 5.42 6.32 5.86 6.32 5.86C7.62 6.32 7.62 7.98 7.62 7.98L7.62 10.3C7.62 12.94 5.14 12.94 5.14 12.94L0 12.94L0 0L4.98 0ZM4.66 4.96L4.66 2.3C4.66 2.14 4.55 2.02 4.55 2.02C4.44 1.9 4.28 1.9 4.28 1.9L2.8 1.9L2.8 5.36L4.28 5.36C4.44 5.36 4.55 5.24 4.55 5.24C4.66 5.12 4.66 4.96 4.66 4.96ZM4.71 7.44C4.71 7.44 4.82 7.56 4.82 7.72L4.82 10.62C4.82 10.62 4.82 10.78 4.71 10.9C4.71 10.9 4.6 11.02 4.44 11.02L2.8 11.02L2.8 7.32L4.44 7.32C4.44 7.32 4.6 7.32 4.71 7.44Z" /><path id="B" fill-rule="evenodd" style="fill:#000000" transform="translate(372.80764858602384 424.9470399908119)  rotate(144.59016393442624 3.8099999999999996 6.47)" opacity="1" d="M7.46 2.64L7.46 3.82C7.46 5.42 6.32 5.86 6.32 5.86C7.62 6.32 7.62 7.98 7.62 7.98L7.62 10.3C7.62 12.94 5.14 12.94 5.14 12.94L0 12.94L0 0L4.98 0C7.46 0 7.46 2.64 7.46 2.64ZM4.55 2.02C4.44 1.9 4.28 1.9 4.28 1.9L2.8 1.9L2.8 5.36L4.28 5.36C4.44 5.36 4.55 5.24 4.55 5.24C4.66 5.12 4.66 4.96 4.66 4.96L4.66 2.3C4.66 2.14 4.55 2.02 4.55 2.02ZM4.71 10.9C4.71 10.9 4.6 11.02 4.44 11.02L2.8 11.02L2.8 7.32L4.44 7.32C4.44 7.32 4.6 7.32 4.71 7.44C4.71 7.44 4.82 7.56 4.82 7.72L4.82 10.62C4.82 10.62 4.82 10.78 4.71 10.9Z" /><path id="A" fill-rule="evenodd" style="fill:#000000" transform="translate(391.77276549364507 409.9390810327366)  rotate(138.68852459016398 3.8099999999999996 6.57)" opacity="1" d="M5.14 0L2.48 0C2.48 0 0 0 0 2.64L0 13.14L2.8 13.14L2.8 8.8L4.82 8.8L4.82 13.14L7.62 13.14L7.62 2.64C7.62 2.64 7.62 0 5.14 0ZM2.8 2.3C2.8 2.3 2.8 2.14 2.91 2.02C2.91 2.02 3.02 1.9 3.18 1.9L4.44 1.9C4.44 1.9 4.6 1.9 4.71 2.02C4.71 2.02 4.82 2.14 4.82 2.3L4.82 6.64L2.8 6.64L2.8 2.3Z" /><path id="R" fill-rule="evenodd" style="fill:#000000" transform="translate(409.0994518357214 393.058372523912)  rotate(132.78688524590166 3.7300000000000004 6.47)" opacity="1" d="M7.32 7.82C7.32 7.82 7.32 6.54 6.32 6.18C6.32 6.18 7.46 5.74 7.46 4.14L7.46 2.64C7.46 2.64 7.46 0 4.98 0L0 0L0 12.94L2.8 12.94L2.8 7.64L4.14 7.64C4.14 7.64 4.52 7.64 4.52 8.04L4.52 12.94L7.32 12.94L7.32 7.82ZM4.28 1.9C4.28 1.9 4.44 1.9 4.55 2.02C4.55 2.02 4.66 2.14 4.66 2.3L4.66 5.28C4.66 5.28 4.66 5.44 4.55 5.56C4.55 5.56 4.44 5.68 4.28 5.68L2.8 5.68L2.8 1.9L4.28 1.9Z" /><path id="D" fill-rule="evenodd" style="fill:#000000" transform="translate(424.3997847410599 374.58496769811234)  rotate(126.88524590163934 3.8099999999999996 6.47)" opacity="1" d="M7.62 10.3C7.62 12.94 5.14 12.94 5.14 12.94L0 12.94L0 0L5.14 0C7.62 0 7.62 2.64 7.62 2.64L7.62 10.3ZM4.82 10.62L4.82 2.3C4.82 2.14 4.71 2.02 4.71 2.02C4.6 1.9 4.44 1.9 4.44 1.9L2.8 1.9L2.8 11.02L4.44 11.02C4.6 11.02 4.71 10.9 4.71 10.9C4.82 10.78 4.82 10.62 4.82 10.62Z" /><path id="A" fill-rule="evenodd" style="fill:#000000" transform="translate(437.9328946694519 354.51554519065195)  rotate(120.98360655737707 3.8099999999999996 6.57)" opacity="1" d="M5.14 0C7.62 0 7.62 2.64 7.62 2.64L7.62 13.14L4.82 13.14L4.82 8.8L2.8 8.8L2.8 13.14L0 13.14L0 2.64C0 0 2.48 0 2.48 0L5.14 0ZM2.8 2.3L2.8 6.64L4.82 6.64L4.82 2.3C4.82 2.14 4.71 2.02 4.71 2.02C4.6 1.9 4.44 1.9 4.44 1.9L3.18 1.9C3.02 1.9 2.91 2.02 2.91 2.02C2.8 2.14 2.8 2.3 2.8 2.3Z" /><path id="E" fill-rule="evenodd" style="fill:#000000" transform="translate(449.9653517936124 333.39340284678855)  rotate(115.08196721311475 2.95 6.47)" opacity="1" d="M5.7,5.32L2.8,5.32L2.8,2.28L5.9,2.28L5.9,0L0,0L0,12.94L5.9,12.94L5.9,10.62L2.8,10.62L2.8,7.52L5.7,7.52L5.7,5.32Z " /><path id="D" fill-rule="evenodd" style="fill:#000000" transform="translate(458.23242584261214 310.918341945302)  rotate(109.18032786885249 3.8099999999999996 6.47)" opacity="1" d="M7.62 2.64L7.62 10.3C7.62 12.94 5.14 12.94 5.14 12.94L0 12.94L0 0L5.14 0C7.62 0 7.62 2.64 7.62 2.64ZM4.82 10.62L4.82 2.3C4.82 2.14 4.71 2.02 4.71 2.02C4.6 1.9 4.44 1.9 4.44 1.9L2.8 1.9L2.8 11.02L4.44 11.02C4.6 11.02 4.71 10.9 4.71 10.9C4.82 10.78 4.82 10.62 4.82 10.62Z" /><path id="T" fill-rule="evenodd" style="fill:#000000" transform="translate(470.76623440713354 215.81910572664336)  rotate(85.57377049180332 3.5 6.47)" opacity="1" d="M2.1,2.38L2.1,12.94L4.9,12.94L4.9,2.38L7,2.38L7,0L0,0L0,2.38L2.1,2.38Z " /><path id="I" fill-rule="evenodd" style="fill:#000000" transform="translate(469.7701430276916 192.0418443895856)  rotate(79.672131147541 1.4 6.47)" opacity="1" d="M0,0L0,12.94L2.8,12.94L2.8,0L0,0Z " /><path id="B" fill-rule="evenodd" style="fill:#000000" transform="translate(461.7854065844275 168.48480349617074)  rotate(73.7704918032787 3.8099999999999996 6.47)" opacity="1" d="M7.46 2.64L7.46 3.82C7.46 5.42 6.32 5.86 6.32 5.86C7.62 6.32 7.62 7.98 7.62 7.98L7.62 10.3C7.62 12.94 5.14 12.94 5.14 12.94L0 12.94L0 0L4.98 0C7.46 0 7.46 2.64 7.46 2.64ZM4.55 5.24C4.66 5.12 4.66 4.96 4.66 4.96L4.66 2.3C4.66 2.14 4.55 2.02 4.55 2.02C4.44 1.9 4.28 1.9 4.28 1.9L2.8 1.9L2.8 5.36L4.28 5.36C4.44 5.36 4.55 5.24 4.55 5.24ZM4.44 7.32L2.8 7.32L2.8 11.02L4.44 11.02C4.6 11.02 4.71 10.9 4.71 10.9C4.82 10.78 4.82 10.62 4.82 10.62L4.82 7.72C4.82 7.56 4.71 7.44 4.71 7.44C4.6 7.32 4.44 7.32 4.44 7.32Z" /><path id="B" fill-rule="evenodd" style="fill:#000000" transform="translate(453.84321221059855 145.71223129814788)  rotate(67.86885245901641 3.8099999999999996 6.47)" opacity="1" d="M7.46 2.64C7.46 2.64 7.46 0 4.98 0L0 0L0 12.94L5.14 12.94C5.14 12.94 7.62 12.94 7.62 10.3L7.62 7.98C7.62 7.98 7.62 6.32 6.32 5.86C6.32 5.86 7.46 5.42 7.46 3.82L7.46 2.64ZM2.8 5.36L4.28 5.36C4.44 5.36 4.55 5.24 4.55 5.24C4.66 5.12 4.66 4.96 4.66 4.96L4.66 2.3C4.66 2.14 4.55 2.02 4.55 2.02C4.44 1.9 4.28 1.9 4.28 1.9L2.8 1.9L2.8 5.36ZM2.8 7.32L4.44 7.32C4.44 7.32 4.6 7.32 4.71 7.44C4.71 7.44 4.82 7.56 4.82 7.72L4.82 10.62C4.82 10.62 4.82 10.78 4.71 10.9C4.71 10.9 4.6 11.02 4.44 11.02L2.8 11.02L2.8 7.32Z" /><path id="A" fill-rule="evenodd" style="fill:#000000" transform="translate(443.68988175389336 123.72998323602354)  rotate(61.96721311475412 3.8099999999999996 6.57)" opacity="1" d="M7.62 2.64L7.62 13.14L4.82 13.14L4.82 8.8L2.8 8.8L2.8 13.14L0 13.14L0 2.64C0 0 2.48 0 2.48 0L5.14 0C7.62 0 7.62 2.64 7.62 2.64ZM2.8 6.64L4.82 6.64L4.82 2.3C4.82 2.14 4.71 2.02 4.71 2.02C4.6 1.9 4.44 1.9 4.44 1.9L3.18 1.9C3.02 1.9 2.91 2.02 2.91 2.02C2.8 2.14 2.8 2.3 2.8 2.3L2.8 6.64Z" /><path id="R" fill-rule="evenodd" style="fill:#000000" transform="translate(431.2045155672304 103.14413725770555)  rotate(56.065573770491824 3.7300000000000004 6.47)" opacity="1" d="M7.46 4.14L7.46 2.64C7.46 2.64 7.46 0 4.98 0L0 0L0 12.94L2.8 12.94L2.8 7.64L4.14 7.64C4.14 7.64 4.52 7.64 4.52 8.04L4.52 12.94L7.32 12.94L7.32 7.82C7.32 7.82 7.32 6.54 6.32 6.18C6.32 6.18 7.46 5.74 7.46 4.14ZM4.55 2.02C4.55 2.02 4.66 2.14 4.66 2.3L4.66 5.28C4.66 5.28 4.66 5.44 4.55 5.56C4.55 5.56 4.44 5.68 4.28 5.68L2.8 5.68L2.8 1.9L4.28 1.9C4.28 1.9 4.44 1.9 4.55 2.02Z" /><path id="D" fill-rule="evenodd" style="fill:#000000" transform="translate(416.67768272759747 83.93189254136331)  rotate(50.16393442622953 3.8099999999999996 6.47)" opacity="1" d="M5.14 0C7.62 0 7.62 2.64 7.62 2.64L7.62 10.3C7.62 12.94 5.14 12.94 5.14 12.94L0 12.94L0 0L5.14 0ZM4.71 10.9C4.71 10.9 4.6 11.02 4.44 11.02L2.8 11.02L2.8 1.9L4.44 1.9C4.44 1.9 4.6 1.9 4.71 2.02C4.71 2.02 4.82 2.14 4.82 2.3L4.82 10.62C4.82 10.62 4.82 10.78 4.71 10.9Z" /><path id="A" fill-rule="evenodd" style="fill:#000000" transform="translate(400.3505447011894 66.07386721527416)  rotate(44.26229508196724 3.8099999999999996 6.57)" opacity="1" d="M7.62 13.14L4.82 13.14L4.82 8.8L2.8 8.8L2.8 13.14L0 13.14L0 2.64C0 0 2.48 0 2.48 0L5.14 0C7.62 0 7.62 2.64 7.62 2.64L7.62 13.14ZM2.8 2.3L2.8 6.64L4.82 6.64L4.82 2.3C4.82 2.14 4.71 2.02 4.71 2.02C4.6 1.9 4.44 1.9 4.44 1.9L3.18 1.9C3.02 1.9 2.91 2.02 2.91 2.02C2.8 2.14 2.8 2.3 2.8 2.3Z" /><path id="E" fill-rule="evenodd" style="fill:#000000" transform="translate(383.12196607522145 50.42564677147197)  rotate(38.36065573770492 2.95 6.47)" opacity="1" d="M5.7,5.32L2.8,5.32L2.8,2.28L5.9,2.28L5.9,0L0,0L0,12.94L5.9,12.94L5.9,10.62L2.8,10.62L2.8,7.52L5.7,7.52L5.7,5.32Z " /><path id="D" fill-rule="evenodd" style="fill:#000000" transform="translate(362.4841670336425 36.38034477071811)  rotate(32.459016393442624 3.8099999999999996 6.47)" opacity="1" d="M7.62 10.3C7.62 12.94 5.14 12.94 5.14 12.94L0 12.94L0 0L5.14 0C7.62 0 7.62 2.64 7.62 2.64L7.62 10.3ZM2.8 1.9L2.8 11.02L4.44 11.02C4.6 11.02 4.71 10.9 4.71 10.9C4.82 10.78 4.82 10.62 4.82 10.62L4.82 2.3C4.82 2.14 4.71 2.02 4.71 2.02C4.6 1.9 4.44 1.9 4.44 1.9L2.8 1.9Z" /><path id="T" fill-rule="evenodd" style="fill:#000000" transform="translate(296.65802421003445 7.549376334933101)  rotate(14.754098360655746 3.5 6.47)" opacity="1" d="M2.1,2.38L2.1,12.94L4.9,12.94L4.9,2.38L7,2.38L7,0L0,0L0,2.38L2.1,2.38Z " /><path id="I" fill-rule="evenodd" style="fill:#000000" transform="translate(275.2834597507939 2.6617632191525056)  rotate(8.852459016393453 1.4 6.47)" opacity="1" d="M0,0L0,12.94L2.8,12.94L2.8,0L0,0Z " /><path id="B" fill-rule="evenodd" style="fill:#000000" transform="translate(248.7925511753521 0.18755541722987434)  rotate(2.9508196721311606 3.8099999999999996 6.47)" opacity="1" d="M7.46 3.82C7.46 5.42 6.32 5.86 6.32 5.86C7.62 6.32 7.62 7.98 7.62 7.98L7.62 10.3C7.62 12.94 5.14 12.94 5.14 12.94L0 12.94L0 0L4.98 0C7.46 0 7.46 2.64 7.46 2.64L7.46 3.82ZM4.55 2.02C4.44 1.9 4.28 1.9 4.28 1.9L2.8 1.9L2.8 5.36L4.28 5.36C4.44 5.36 4.55 5.24 4.55 5.24C4.66 5.12 4.66 4.96 4.66 4.96L4.66 2.3C4.66 2.14 4.55 2.02 4.55 2.02ZM4.82 10.62C4.82 10.62 4.82 10.78 4.71 10.9C4.71 10.9 4.6 11.02 4.44 11.02L2.8 11.02L2.8 7.32L4.44 7.32C4.44 7.32 4.6 7.32 4.71 7.44C4.71 7.44 4.82 7.56 4.82 7.72L4.82 10.62Z" /><path id="B" fill-rule="evenodd" style="fill:#000000" transform="translate(224.67475456544486 0.20711734404258753)  rotate(-2.950819672131132 3.8099999999999996 6.47)" opacity="1" d="M7.62 10.3L7.62 7.98C7.62 7.98 7.62 6.32 6.32 5.86C6.32 5.86 7.46 5.42 7.46 3.82L7.46 2.64C7.46 2.64 7.46 0 4.98 0L0 0L0 12.94L5.14 12.94C5.14 12.94 7.62 12.94 7.62 10.3ZM4.66 2.3L4.66 4.96C4.66 4.96 4.66 5.12 4.55 5.24C4.55 5.24 4.44 5.36 4.28 5.36L2.8 5.36L2.8 1.9L4.28 1.9C4.28 1.9 4.44 1.9 4.55 2.02C4.55 2.02 4.66 2.14 4.66 2.3ZM4.71 10.9C4.71 10.9 4.6 11.02 4.44 11.02L2.8 11.02L2.8 7.32L4.44 7.32C4.44 7.32 4.6 7.32 4.71 7.44C4.71 7.44 4.82 7.56 4.82 7.72L4.82 10.62C4.82 10.62 4.82 10.78 4.71 10.9Z" /><path id="A" fill-rule="evenodd" style="fill:#000000" transform="translate(200.67140759662243 2.5075826967875807)  rotate(-8.852459016393425 3.8099999999999996 6.57)" opacity="1" d="M0 13.14L2.8 13.14L2.8 8.8L4.82 8.8L4.82 13.14L7.62 13.14L7.62 2.64C7.62 2.64 7.62 0 5.14 0L2.48 0C2.48 0 0 0 0 2.64L0 13.14ZM4.44 1.9C4.44 1.9 4.6 1.9 4.71 2.02C4.71 2.02 4.82 2.14 4.82 2.3L4.82 6.64L2.8 6.64L2.8 2.3C2.8 2.3 2.8 2.14 2.91 2.02C2.91 2.02 3.02 1.9 3.18 1.9L4.44 1.9Z" /><path id="R" fill-rule="evenodd" style="fill:#000000" transform="translate(177.08559354527506 7.679258606256114)  rotate(-14.754098360655718 3.7300000000000004 6.47)" opacity="1" d="M0 12.94L0 0L4.98 0C7.46 0 7.46 2.64 7.46 2.64L7.46 4.14C7.46 5.74 6.32 6.18 6.32 6.18C7.32 6.54 7.32 7.82 7.32 7.82L7.32 12.94L4.52 12.94L4.52 8.04C4.52 7.64 4.14 7.64 4.14 7.64L2.8 7.64L2.8 12.94L0 12.94ZM4.55 5.56C4.55 5.56 4.44 5.68 4.28 5.68L2.8 5.68L2.8 1.9L4.28 1.9C4.28 1.9 4.44 1.9 4.55 2.02C4.55 2.02 4.66 2.14 4.66 2.3L4.66 5.28C4.66 5.28 4.66 5.44 4.55 5.56Z" /><path id="D" fill-rule="evenodd" style="fill:#000000" transform="translate(154.11343847773347 15.012099972366443)  rotate(-20.65573770491801 3.8099999999999996 6.47)" opacity="1" d="M7.62 10.3C7.62 12.94 5.14 12.94 5.14 12.94L0 12.94L0 0L5.14 0C7.62 0 7.62 2.64 7.62 2.64L7.62 10.3ZM4.82 10.62L4.82 2.3C4.82 2.14 4.71 2.02 4.71 2.02C4.6 1.9 4.44 1.9 4.44 1.9L2.8 1.9L2.8 11.02L4.44 11.02C4.6 11.02 4.71 10.9 4.71 10.9C4.82 10.78 4.82 10.62 4.82 10.62Z" /><path id="A" fill-rule="evenodd" style="fill:#000000" transform="translate(131.9770180157916 24.49864203650671)  rotate(-26.55737704918033 3.8099999999999996 6.57)" opacity="1" d="M0 13.14L2.8 13.14L2.8 8.8L4.82 8.8L4.82 13.14L7.62 13.14L7.62 2.64C7.62 2.64 7.62 0 5.14 0L2.48 0C2.48 0 0 0 0 2.64L0 13.14ZM4.44 1.9C4.44 1.9 4.6 1.9 4.71 2.02C4.71 2.02 4.82 2.14 4.82 2.3L4.82 6.64L2.8 6.64L2.8 2.3C2.8 2.3 2.8 2.14 2.91 2.02C2.91 2.02 3.02 1.9 3.18 1.9L4.44 1.9Z" /><path id="E" fill-rule="evenodd" style="fill:#000000" transform="translate(112.02012872695296 36.509151857276095)  rotate(-32.459016393442624 2.95 6.47)" opacity="1" d="M5.7,7.52L5.7,5.32L2.8,5.32L2.8,2.28L5.9,2.28L5.9,0L0,0L0,12.94L5.9,12.94L5.9,10.62L2.8,10.62L2.8,7.52L5.7,7.52Z " /><path id="D" fill-rule="evenodd" style="fill:#000000" transform="translate(91.3966470661532 50.574593047110504)  rotate(-38.36065573770492 3.8099999999999996 6.47)" opacity="1" d="M7.62 10.3C7.62 12.94 5.14 12.94 5.14 12.94L0 12.94L0 0L5.14 0C7.62 0 7.62 2.64 7.62 2.64L7.62 10.3ZM4.71 10.9C4.82 10.78 4.82 10.62 4.82 10.62L4.82 2.3C4.82 2.14 4.71 2.02 4.71 2.02C4.6 1.9 4.44 1.9 4.44 1.9L2.8 1.9L2.8 11.02L4.44 11.02C4.6 11.02 4.71 10.9 4.71 10.9Z" /><path id="T" fill-rule="evenodd" style="fill:#000000" transform="translate(42.74758202948911 103.56727253461727)  rotate(-56.065573770491795 3.5 6.47)" opacity="1" d="M2.1,2.38L2.1,12.94L4.9,12.94L4.9,2.38L7,2.38L7,0L0,0L0,2.38L2.1,2.38Z " /><path id="I" fill-rule="evenodd" style="fill:#000000" transform="translate(32.51889476541436 124.13295776184057)  rotate(-61.96721311475409 1.4 6.47)" opacity="1" d="M0,0L0,12.94L2.8,12.94L2.8,0L0,0Z " /><path id="B" fill-rule="evenodd" style="fill:#000000" transform="translate(19.860433084773177 146.06423440608341)  rotate(-67.86885245901638 3.8099999999999996 6.47)" opacity="1" d="M7.46 3.82C7.46 5.42 6.32 5.86 6.32 5.86C7.62 6.32 7.62 7.98 7.62 7.98L7.62 10.3C7.62 12.94 5.14 12.94 5.14 12.94L0 12.94L0 0L4.98 0C7.46 0 7.46 2.64 7.46 2.64L7.46 3.82ZM2.8 5.36L4.28 5.36C4.44 5.36 4.55 5.24 4.55 5.24C4.66 5.12 4.66 4.96 4.66 4.96L4.66 2.3C4.66 2.14 4.55 2.02 4.55 2.02C4.44 1.9 4.28 1.9 4.28 1.9L2.8 1.9L2.8 5.36ZM4.82 10.62C4.82 10.62 4.82 10.78 4.71 10.9C4.71 10.9 4.6 11.02 4.44 11.02L2.8 11.02L2.8 7.32L4.44 7.32C4.44 7.32 4.6 7.32 4.71 7.44C4.71 7.44 4.82 7.56 4.82 7.72L4.82 10.62Z" /><path id="B" fill-rule="evenodd" style="fill:#000000" transform="translate(11.955190769282028 168.84966044816582)  rotate(-73.77049180327869 3.8099999999999996 6.47)" opacity="1" d="M7.62 10.3C7.62 12.94 5.14 12.94 5.14 12.94L0 12.94L0 0L4.98 0C7.46 0 7.46 2.64 7.46 2.64L7.46 3.82C7.46 5.42 6.32 5.86 6.32 5.86C7.62 6.32 7.62 7.98 7.62 7.98L7.62 10.3ZM4.66 2.3L4.66 4.96C4.66 4.96 4.66 5.12 4.55 5.24C4.55 5.24 4.44 5.36 4.28 5.36L2.8 5.36L2.8 1.9L4.28 1.9C4.28 1.9 4.44 1.9 4.55 2.02C4.55 2.02 4.66 2.14 4.66 2.3ZM4.44 11.02C4.6 11.02 4.71 10.9 4.71 10.9C4.82 10.78 4.82 10.62 4.82 10.62L4.82 7.72C4.82 7.56 4.71 7.44 4.71 7.44C4.6 7.32 4.44 7.32 4.44 7.32L2.8 7.32L2.8 11.02L4.44 11.02Z" /><path id="A" fill-rule="evenodd" style="fill:#000000" transform="translate(6.336287652048931 192.2092177196608)  rotate(-79.67213114754098 3.8099999999999996 6.57)" opacity="1" d="M4.82 8.8L4.82 13.14L7.62 13.14L7.62 2.64C7.62 2.64 7.62 0 5.14 0L2.48 0C2.48 0 0 0 0 2.64L0 13.14L2.8 13.14L2.8 8.8L4.82 8.8ZM2.8 2.3C2.8 2.3 2.8 2.14 2.91 2.02C2.91 2.02 3.02 1.9 3.18 1.9L4.44 1.9C4.44 1.9 4.6 1.9 4.71 2.02C4.71 2.02 4.82 2.14 4.82 2.3L4.82 6.64L2.8 6.64L2.8 2.3Z" /><path id="R" fill-rule="evenodd" style="fill:#000000" transform="translate(3.431208002134942 216.32758466513206)  rotate(-85.57377049180327 3.7300000000000004 6.47)" opacity="1" d="M4.52 12.94L7.32 12.94L7.32 7.82C7.32 7.82 7.32 6.54 6.32 6.18C6.32 6.18 7.46 5.74 7.46 4.14L7.46 2.64C7.46 2.64 7.46 0 4.98 0L0 0L0 12.94L2.8 12.94L2.8 7.64L4.14 7.64C4.14 7.64 4.52 7.64 4.52 8.04L4.52 12.94ZM4.55 5.56C4.55 5.56 4.44 5.68 4.28 5.68L2.8 5.68L2.8 1.9L4.28 1.9C4.28 1.9 4.44 1.9 4.55 2.02C4.55 2.02 4.66 2.14 4.66 2.3L4.66 5.28C4.66 5.28 4.66 5.44 4.55 5.56Z" /><path id="D" fill-rule="evenodd" style="fill:#000000" transform="translate(2.755954535843112 240.35812771866648)  rotate(-91.47540983606557 3.8099999999999996 6.47)" opacity="1" d="M7.62 10.3C7.62 12.94 5.14 12.94 5.14 12.94L0 12.94L0 0L5.14 0C7.62 0 7.62 2.64 7.62 2.64L7.62 10.3ZM2.8 11.02L2.8 1.9L4.44 1.9C4.44 1.9 4.6 1.9 4.71 2.02C4.71 2.02 4.82 2.14 4.82 2.3L4.82 10.62C4.82 10.62 4.82 10.78 4.71 10.9C4.71 10.9 4.6 11.02 4.44 11.02L2.8 11.02Z" /><path id="A" fill-rule="evenodd" style="fill:#000000" transform="translate(4.537587951159001 264.3153237728378)  rotate(-97.37704918032786 3.8099999999999996 6.57)" opacity="1" d="M4.82 13.14L4.82 8.8L2.8 8.8L2.8 13.14L0 13.14L0 2.64C0 0 2.48 0 2.48 0L5.14 0C7.62 0 7.62 2.64 7.62 2.64L7.62 13.14L4.82 13.14ZM4.71 2.02C4.6 1.9 4.44 1.9 4.44 1.9L3.18 1.9C3.02 1.9 2.91 2.02 2.91 2.02C2.8 2.14 2.8 2.3 2.8 2.3L2.8 6.64L4.82 6.64L4.82 2.3C4.82 2.14 4.71 2.02 4.71 2.02Z" /><path id="E" fill-rule="evenodd" style="fill:#000000" transform="translate(9.807705795268523 287.98975874921587)  rotate(-103.27868852459017 2.95 6.47)" opacity="1" d="M5.9,10.62L2.8,10.62L2.8,7.52L5.7,7.52L5.7,5.32L2.8,5.32L2.8,2.28L5.9,2.28L5.9,0L0,0L0,12.94L5.9,12.94L5.9,10.62Z " /><path id="D" fill-rule="evenodd" style="fill:#000000" transform="translate(15.73922215746696 311.27724785223967)  rotate(-109.18032786885246 3.8099999999999996 6.47)" opacity="1" d="M7.62 10.3C7.62 12.94 5.14 12.94 5.14 12.94L0 12.94L0 0L5.14 0C7.62 0 7.62 2.64 7.62 2.64L7.62 10.3ZM4.44 11.02L2.8 11.02L2.8 1.9L4.44 1.9C4.44 1.9 4.6 1.9 4.71 2.02C4.71 2.02 4.82 2.14 4.82 2.3L4.82 10.62C4.82 10.62 4.82 10.78 4.71 10.9C4.71 10.9 4.6 11.02 4.44 11.02Z" /><path id="T" fill-rule="evenodd" style="fill:#000000" transform="translate(50.01510929452886 374.9288985733505)  rotate(-126.88524590163934 3.5 6.47)" opacity="1" d="M2.1,2.38L2.1,12.94L4.9,12.94L4.9,2.38L7,2.38L7,0L0,0L0,2.38L2.1,2.38Z " /><path id="I" fill-rule="evenodd" style="fill:#000000" transform="translate(67.48868119462362 393.32991010949183)  rotate(-132.78688524590163 1.4 6.47)" opacity="1" d="M0,0L0,12.94L2.8,12.94L2.8,0L0,0Z " /><path id="B" fill-rule="evenodd" style="fill:#000000" transform="translate(82.42548174710582 410.21482564550456)  rotate(-138.68852459016392 3.8099999999999996 6.47)" opacity="1" d="M6.32 5.86C6.32 5.86 7.46 5.42 7.46 3.82L7.46 2.64C7.46 2.64 7.46 0 4.98 0L0 0L0 12.94L5.14 12.94C5.14 12.94 7.62 12.94 7.62 10.3L7.62 7.98C7.62 7.98 7.62 6.32 6.32 5.86ZM4.28 5.36L2.8 5.36L2.8 1.9L4.28 1.9C4.28 1.9 4.44 1.9 4.55 2.02C4.55 2.02 4.66 2.14 4.66 2.3L4.66 4.96C4.66 4.96 4.66 5.12 4.55 5.24C4.55 5.24 4.44 5.36 4.28 5.36ZM4.44 11.02L2.8 11.02L2.8 7.32L4.44 7.32C4.44 7.32 4.6 7.32 4.71 7.44C4.71 7.44 4.82 7.56 4.82 7.72L4.82 10.62C4.82 10.62 4.82 10.78 4.71 10.9C4.71 10.9 4.6 11.02 4.44 11.02Z" /><path id="B" fill-rule="evenodd" style="fill:#000000" transform="translate(101.34886407718564 425.16722000812956)  rotate(-144.59016393442624 3.8099999999999996 6.47)" opacity="1" d="M0 0L0 12.94L5.14 12.94C5.14 12.94 7.62 12.94 7.62 10.3L7.62 7.98C7.62 7.98 7.62 6.32 6.32 5.86C6.32 5.86 7.46 5.42 7.46 3.82L7.46 2.64C7.46 2.64 7.46 0 4.98 0L0 0ZM4.28 5.36C4.44 5.36 4.55 5.24 4.55 5.24C4.66 5.12 4.66 4.96 4.66 4.96L4.66 2.3C4.66 2.14 4.55 2.02 4.55 2.02C4.44 1.9 4.28 1.9 4.28 1.9L2.8 1.9L2.8 5.36L4.28 5.36ZM4.82 10.62C4.82 10.62 4.82 10.78 4.71 10.9C4.71 10.9 4.6 11.02 4.44 11.02L2.8 11.02L2.8 7.32L4.44 7.32C4.44 7.32 4.6 7.32 4.71 7.44C4.71 7.44 4.82 7.56 4.82 7.72L4.82 10.62Z" /><path id="A" fill-rule="evenodd" style="fill:#000000" transform="translate(121.66011541828404 438.08167230448583)  rotate(-150.4918032786885 3.8099999999999996 6.57)" opacity="1" d="M5.14 0L2.48 0C2.48 0 0 0 0 2.64L0 13.14L2.8 13.14L2.8 8.8L4.82 8.8L4.82 13.14L7.62 13.14L7.62 2.64C7.62 2.64 7.62 0 5.14 0ZM4.44 1.9C4.44 1.9 4.6 1.9 4.71 2.02C4.71 2.02 4.82 2.14 4.82 2.3L4.82 6.64L2.8 6.64L2.8 2.3C2.8 2.3 2.8 2.14 2.91 2.02C2.91 2.02 3.02 1.9 3.18 1.9L4.44 1.9Z" /><path id="R" fill-rule="evenodd" style="fill:#000000" transform="translate(143.4444791128789 448.89209936676446)  rotate(-156.39344262295083 3.7300000000000004 6.47)" opacity="1" d="M7.46 4.14L7.46 2.64C7.46 2.64 7.46 0 4.98 0L0 0L0 12.94L2.8 12.94L2.8 7.64L4.14 7.64C4.14 7.64 4.52 7.64 4.52 8.04L4.52 12.94L7.32 12.94L7.32 7.82C7.32 7.82 7.32 6.54 6.32 6.18C6.32 6.18 7.46 5.74 7.46 4.14ZM4.28 1.9C4.28 1.9 4.44 1.9 4.55 2.02C4.55 2.02 4.66 2.14 4.66 2.3L4.66 5.28C4.66 5.28 4.66 5.44 4.55 5.56C4.55 5.56 4.44 5.68 4.28 5.68L2.8 5.68L2.8 1.9L4.28 1.9Z" /><path id="D" fill-rule="evenodd" style="fill:#000000" transform="translate(165.86550219710807 457.3493617074923)  rotate(-162.29508196721312 3.8099999999999996 6.47)" opacity="1" d="M7.62 10.3C7.62 12.94 5.14 12.94 5.14 12.94L0 12.94L0 0L5.14 0C7.62 0 7.62 2.64 7.62 2.64L7.62 10.3ZM4.44 11.02L2.8 11.02L2.8 1.9L4.44 1.9C4.44 1.9 4.6 1.9 4.71 2.02C4.71 2.02 4.82 2.14 4.82 2.3L4.82 10.62C4.82 10.62 4.82 10.78 4.71 10.9C4.71 10.9 4.6 11.02 4.44 11.02Z" /><path id="A" fill-rule="evenodd" style="fill:#000000" transform="translate(189.17260683096939 463.4704366308189)  rotate(-168.19672131147541 3.8099999999999996 6.57)" opacity="1" d="M7.62 2.64C7.62 2.64 7.62 0 5.14 0L2.48 0C2.48 0 0 0 0 2.64L0 13.14L2.8 13.14L2.8 8.8L4.82 8.8L4.82 13.14L7.62 13.14L7.62 2.64ZM2.8 2.3C2.8 2.3 2.8 2.14 2.91 2.02C2.91 2.02 3.02 1.9 3.18 1.9L4.44 1.9C4.44 1.9 4.6 1.9 4.71 2.02C4.71 2.02 4.82 2.14 4.82 2.3L4.82 6.64L2.8 6.64L2.8 2.3Z" /><path id="E" fill-rule="evenodd" style="fill:#000000" transform="translate(213.7473173618306 467.15032884873216)  rotate(-174.0983606557377 2.95 6.47)" opacity="1" d="M5.9,10.62L2.8,10.62L2.8,7.52L5.7,7.52L5.7,5.32L2.8,5.32L2.8,2.28L5.9,2.28L5.9,0L0,0L0,12.94L5.9,12.94L5.9,10.62Z " /><path id="D" fill-rule="evenodd" style="fill:#000000" transform="translate(237.1134009474765 468.3867419361577)  rotate(-180 3.8099999999999996 6.47)" opacity="1" d="M0 0L5.14 0C7.62 0 7.62 2.64 7.62 2.64L7.62 10.3C7.62 12.94 5.14 12.94 5.14 12.94L0 12.94L0 0ZM4.82 10.62C4.82 10.62 4.82 10.78 4.71 10.9C4.71 10.9 4.6 11.02 4.44 11.02L2.8 11.02L2.8 1.9L4.44 1.9C4.44 1.9 4.6 1.9 4.71 2.02C4.71 2.02 4.82 2.14 4.82 2.3L4.82 10.62Z" /></g></svg>