<svg width="400" height="280" viewBox="0 0 400 280" fill="none" xmlns="http://www.w3.org/2000/svg">
<path fill-rule="evenodd" clip-rule="evenodd" d="M65.3809 1.02565C63.6336 1.78538 62.9999 2.53339 62.9999 3.83746C62.9999 6.16941 64.7274 7.53649 66.9633 6.9753C69.1905 6.41631 73.2565 3.05869 73.2565 1.77806C73.2565 -0.227139 69.1626 -0.618362 65.3809 1.02565ZM71.4989 1.51871C72.2382 2.71435 68.4447 5.79431 66.2329 5.79431C64.2512 5.79431 63.0856 3.95029 64.3003 2.7356C64.7193 2.31654 66.164 1.71358 67.5106 1.39489C70.9678 0.577281 70.9165 0.575818 71.4989 1.51871ZM163.368 10.5791C163.368 10.7923 164.535 11.9916 165.96 13.2436C168.946 15.865 171.799 20.5032 172.502 23.8792C173.228 27.3672 171.9 31.034 168.393 35.2231C165.551 38.6166 165.257 39.3354 165.321 42.7157C165.361 44.7722 165.94 48.5298 166.607 51.0654C167.787 55.5491 167.779 55.7286 166.327 57.5748C165.505 58.6188 164.833 60.0437 164.833 60.7412C164.833 62.6189 167.477 65.6388 169.584 66.1678C171.195 66.5722 171.427 67.0257 171.427 69.7803C171.427 75.4831 173.457 80.558 177.261 84.3654C179.322 86.4285 181.673 88.0293 183.041 88.3033L185.347 88.7641V94.1907C185.347 97.7227 184.822 101.173 183.845 104.075C183.019 106.527 182.484 108.673 182.656 108.845C182.828 109.018 184.289 107.658 185.902 105.825C188.651 102.702 188.863 102.595 189.265 104.128C189.975 106.844 186.082 111.959 181.53 114.294C176.721 116.76 173.79 116.21 167.581 111.676C160.324 106.375 159.078 105.965 152.015 106.542C145.356 107.086 143.478 106.577 139.615 103.186C136.973 100.865 136.875 100.843 129.842 100.985C125.934 101.063 122.644 101.221 122.531 101.335C122.417 101.449 123.051 103.159 123.939 105.135C125.006 107.511 125.614 110.464 125.731 113.857C125.902 118.775 126.021 119.082 128.641 121.365C133.26 125.387 137.285 125.963 147.353 124.046C154.977 122.594 157.257 122.891 164.854 126.321C170.091 128.686 171.424 129.004 174.651 128.661C176.706 128.442 179.046 128.04 179.852 127.768C182.906 126.735 169.901 138.399 164.423 141.606C154.353 147.5 140.321 151.595 126.18 152.763C120.933 153.197 119.933 153.088 118.668 151.944C117.865 151.217 115.973 150.423 114.464 150.179L111.719 149.734L111.504 143.57C111.344 138.973 111.67 136.153 112.786 132.478C114.669 126.279 114.665 124.431 112.764 122.014C111.231 120.064 108.919 119.559 107.022 120.761C106.273 121.235 105.56 120.781 104.435 119.111C101.509 114.769 96.9148 114.933 93.5353 119.5C92.2876 121.186 92.0598 122.693 92.0041 129.642L91.9382 137.805L89.1286 131.692C87.5828 128.33 85.6296 124.836 84.7879 123.93C81.5497 120.442 76.0793 122.97 75.0551 128.427C74.2704 132.611 78.9152 141.333 88.604 153.869L90.0854 155.785L84.9651 155.419C76.1423 154.788 71.0586 157.884 71.0586 163.891C71.0586 166.303 73.0199 168.437 75.2367 168.437C76.0609 168.437 78.1372 167.943 79.85 167.338C83.8157 165.939 88.3388 165.939 92.3045 167.338C94.0173 167.943 97.3207 168.437 99.6446 168.437C102.743 168.437 103.983 168.733 104.295 169.547C105.043 171.495 108.21 172.209 110.977 171.053C113.218 170.116 113.731 170.152 116.224 171.424C119.578 173.134 124.293 173.226 132.774 171.746C153.549 168.124 172.486 156.147 184.718 138.892C188.897 132.998 194.967 121.13 196.836 115.205C197.514 113.053 198.362 111.292 198.72 111.292C199.767 111.292 207.956 129.169 210.601 137.23C214.305 148.522 214.294 148.398 211.686 148.92C210.26 149.205 209.022 150.15 208.214 151.57C207.364 153.064 206.25 153.88 204.761 154.095C196.351 155.314 191.396 156.25 190.292 156.828C189.43 157.279 189.002 158.391 188.985 160.221C188.96 162.881 188.84 162.997 183.673 165.351C168.844 172.109 159.34 183.69 155.23 200.011C153.855 205.47 153.719 207.625 154.031 219.029C154.353 230.8 154.266 232.033 153.014 233.579C150.835 236.269 151.569 240.073 154.693 242.291C155.435 242.817 156.042 243.843 156.042 244.569C156.042 246.387 151.84 246.814 133.853 246.821L119.356 246.828L112.964 244.359C98.2504 238.677 84.6692 230.32 75.3774 221.23C70.211 216.176 69.6425 215.331 68.8901 211.577C68.3384 208.827 67.4417 206.883 66.1867 205.716C64.3384 203.998 64.3157 203.85 64.7918 196.609C65.2351 189.866 65.1486 189.086 63.7625 187.323C62.9303 186.266 61.1823 185.173 59.8775 184.896C54.4686 183.747 53.662 180.526 57.0899 173.771C58.2716 171.442 59.6313 167.393 60.1112 164.774C60.8753 160.608 60.813 159.416 59.6159 155.25C58.8071 152.438 58.2562 148.237 58.2694 144.993C58.2892 140.201 58.6533 138.707 61.1185 133.31C63.7318 127.587 63.8658 126.982 62.898 125.251C61.3009 122.395 58.9287 122.465 56.1111 125.453C51.9535 129.861 50.6472 138.523 52.8033 147.386C54.0693 152.591 54.1089 161.287 52.8729 162.781C52.3396 163.427 51.4245 163.77 50.8385 163.545C49.0414 162.856 46.1211 157.06 45.6823 153.31C45.1504 148.771 46.5248 134.926 48.3996 125.945C50.6392 115.21 51.0136 108.819 49.5344 106.562C47.8003 103.915 45.6266 104.24 42.4024 107.629C40.869 109.241 39.1474 110.56 38.5759 110.56C35.4044 110.56 35.1649 105.044 38.0909 99.3762C42.5599 90.7195 56.9214 74.7746 66.1919 68.1774C73.8411 62.7339 75.0375 61.1332 73.8983 57.8642C73.1407 55.692 73.2045 55.2648 74.4147 54.3798C78.5027 51.3907 92.4034 49.5987 99.5735 51.1365C102.497 51.7636 103.733 51.7643 104.486 51.1394C105.87 49.9914 105.766 49.458 103.681 46.9796C101.651 44.5678 101.893 43.8908 104.782 43.8908C107.656 43.8908 110.273 46.299 112.365 50.8676C113.375 53.0743 114.537 54.8802 114.947 54.8802C115.356 54.8802 116.36 54.1622 117.177 53.2853C117.994 52.4076 118.899 51.9263 119.188 52.2149C119.476 52.5028 119.84 55.941 119.995 59.854C120.211 65.2593 120.56 67.1883 121.45 67.8843C124.499 70.2675 128.339 67.6799 129.975 62.1391C130.487 60.4049 131.246 58.8723 131.661 58.7338C132.656 58.4019 134.731 63.6783 135.288 67.9605C135.891 72.5863 136.754 74.0655 138.692 73.79C142.933 73.1856 145.167 60.972 142.217 54.5139C140.658 51.1013 135.483 46.1114 132.021 44.6835C130.696 44.137 129.733 43.323 129.88 42.8747C130.357 41.4189 134.605 41.5699 138.338 43.1758C143.121 45.2337 145.343 44.926 145.659 42.164C146.473 35.0385 137.52 28.8405 125.153 27.9679C118.282 27.4837 117.144 26.9437 118.903 25.0001C120.68 23.0359 124.98 21.9121 130.717 21.9121C133.417 21.9121 136.263 21.5707 137.042 21.1538C139.908 19.6204 138.045 16.1976 132.965 13.659C125.586 9.97247 113.24 12.4019 105.266 19.1083C103.328 20.7377 101.655 21.9531 101.547 21.8088C101.439 21.6637 100.63 20.3472 99.7493 18.8819C97.8636 15.7434 95.8709 15.0327 92.6855 16.3639C88.8781 17.9552 85.3893 21.5392 80.8706 28.502C77.7482 33.3139 75.9034 35.4085 74.0125 36.2906C72.5891 36.9543 69.6799 39.1324 67.5472 41.1318C64.4548 44.0293 63.3156 44.6777 61.9251 44.3289C57.6716 43.2608 52.3872 51.5893 48.1417 66.0535C46.7849 70.6771 44.7768 75.9915 43.6801 77.8627C41.5665 81.4694 38.6609 83.8914 37.3906 83.1061C36.2557 82.4049 36.4616 78.607 37.8778 74.1145L39.1298 70.143L37.0162 64.0453C34.9905 58.2012 34.9539 57.8686 36.1407 56.0575C36.8213 55.0187 38.2807 53.6098 39.3833 52.927C42.4522 51.0266 43.2193 49.7372 43.2193 46.4777C43.2193 37.3338 34.0367 38.5434 27.2849 48.5767C24.065 53.3615 24.1903 55.6399 28.0175 61.8863C30.8527 66.5136 31.1289 67.3949 31.1084 71.7306C31.0886 75.9674 30.7787 76.9776 28.2995 80.8884C25.5691 85.194 25.5237 85.3816 26.0695 90.0462C27.0973 98.8319 26.8753 101.115 24.5361 105.798C23.328 108.215 22.01 110.029 21.6071 109.827C21.2042 109.626 20.9749 107.741 21.0965 105.639C21.5566 97.7293 17.4612 96.3387 13.9044 103.198C12.4216 106.056 12.7542 111.977 14.6004 115.596C15.4956 117.35 18.2078 120.644 20.6269 122.915C28.0211 129.855 28.5017 131.988 24.4584 139.922C22.0364 144.674 21.8408 145.519 22.1243 149.996C22.3141 152.979 23.1954 156.748 24.3881 159.669C27.6468 167.652 27.6658 168.621 24.6123 171.4C21.5829 174.156 21.4122 175.2 23.4416 178.528C25.3676 181.687 25.2863 183.759 23.0723 187.922C19.8723 193.94 20.9609 197.437 29.093 207.266C36.9488 216.762 45.1101 222.818 57.199 228.123C65.5259 231.777 67.7978 233.272 68.8359 235.779C70.0337 238.67 68.8659 240.684 65.1215 242.182C62.6218 243.182 62.2211 243.64 62.4109 245.275C62.5823 246.753 63.4753 247.616 66.2966 249.026C69.8 250.778 70.5531 250.859 83.6018 250.894C95.2364 250.926 97.5273 251.117 99.1698 252.194C101.349 253.621 101.593 255.464 100.007 258.53C98.9288 260.615 94.5199 262.786 88.9008 263.997C83.5549 265.15 82.7776 270.16 87.6304 272.188C91.1594 273.662 94.6613 273.069 108.407 268.667C114.643 266.669 121.264 264.855 123.12 264.635C126.161 264.276 126.649 264.435 128.08 266.254C128.954 267.364 129.668 268.677 129.668 269.173C129.668 269.669 130.343 270.932 131.168 271.981L132.666 273.887L130.069 274.973C127.564 276.019 126.688 277.761 128.196 278.693C128.595 278.94 132.499 277.984 136.873 276.57C161.087 268.743 193.351 262.36 226.373 258.867C235.67 257.883 289.352 256.604 282.052 257.54C261.057 260.232 255.578 261.01 248.718 262.271C232.54 265.246 213.095 270.889 201.227 276.055C198.647 277.177 197.762 277.94 197.95 278.877C198.282 280.532 198.573 280.516 217.582 277.759C242.367 274.165 254.678 273.085 274.31 272.78C292.106 272.504 295.153 272.09 293.269 270.207C290.786 267.724 250.319 269.293 226.007 272.816C224.798 272.991 222.49 273.307 220.878 273.517L217.948 273.9L220.878 272.789C224.923 271.254 239.097 267.737 248.352 265.972C259.476 263.85 271.087 262.334 290.84 260.426C300.416 259.502 308.619 258.517 309.071 258.238C310.461 257.379 309.98 255.666 308.243 255.289C304.675 254.513 282.561 253.419 269.301 253.362L255.311 253.302L264.103 251.63C277.172 249.145 296.079 244.36 306.215 240.971C321.3 235.929 328.225 231.846 331.969 225.788C334.26 222.081 334.236 214.718 331.918 209.931C326.834 199.426 312.542 192.659 297.395 193.583C285.193 194.327 276.053 197.886 260.547 207.929C248.488 215.741 236.168 222.45 224.891 227.348L215.75 231.318L213.882 229.553C212.443 228.192 212.079 227.233 212.296 225.377C212.7 221.918 210.587 219.596 206.544 219.053C203.563 218.653 203.134 218.304 200.611 214.226C191.812 200.005 189.04 186.463 193.188 177.961L195.153 173.932L195.627 180.234C195.938 184.377 196.638 187.64 197.668 189.758C199.428 193.376 206.754 201.405 208.294 201.405C208.845 201.405 209.911 200.725 210.663 199.895C211.415 199.065 214.325 196.683 217.132 194.602C220.959 191.765 222.321 191.09 222.582 191.899C223.243 193.955 229.097 199.207 230.726 199.207C231.746 199.207 233.676 197.748 235.959 195.249C240.624 190.146 248.471 184.205 256.777 179.492C267.304 173.516 269.746 170.483 269.741 163.386C269.738 159.832 268.957 156.922 266.357 150.777C265.95 149.816 266.527 149.523 269.52 149.168C275.945 148.407 280.719 144.817 282.094 139.711C283.714 133.691 283.419 133.374 273.993 131.021C261.121 127.809 252.724 123.31 239.176 112.365C233.029 107.4 225.302 101.361 222.004 98.9447C215.171 93.9394 214.908 94.683 224.995 90.507C254.119 78.451 281.777 81.188 310.803 98.9974C315.585 101.932 320.87 105.172 322.547 106.199C324.67 107.498 325.732 108.723 326.042 110.229C327.144 115.586 330.758 118.368 335.605 117.593C338.384 117.149 338.388 117.151 342.637 123.026C344.975 126.259 348.376 131.618 350.192 134.934C352.794 139.681 354.074 141.246 356.209 142.293C358.741 143.534 359.089 143.543 361.419 142.438C365.739 140.387 367.495 134.511 365.278 129.515C364.81 128.459 365.782 128.283 373.768 127.982C383.383 127.617 386.976 126.654 392.074 123.074C396.976 119.633 398.694 114.298 395.897 111.207C394.744 109.933 394.733 109.72 395.786 108.9C397.818 107.314 399.997 102.947 400 100.453C400.004 97.2824 397.231 94.442 394.134 94.442C392.884 94.442 388.831 95.8999 385.126 97.6824C375.509 102.309 372.78 102.747 378.755 98.7037C384.788 94.6207 386.45 92.3305 386.45 88.0974C386.45 81.1162 378.934 78.9066 373.895 84.4057C372.63 85.786 370.501 87.2967 369.164 87.7626C367.827 88.2293 366.026 89.274 365.163 90.085C363.836 91.3312 363.268 91.436 361.494 90.7613C359.266 89.9143 349.687 89.5678 348.947 90.307C348.706 90.5481 347.391 89.7642 346.025 88.5641C343.337 86.2043 339.397 85.6556 336.061 87.1751C334.554 87.8615 333.107 87.3311 325.221 83.2006C314.957 77.8246 304.803 74.0918 293.659 71.5958C283.094 69.2301 261.108 69.2001 250.549 71.5364C239.101 74.0706 229.9 77.3637 219.326 82.7112L209.322 87.7714L205.792 85.9823L202.263 84.194L204.198 80.462C207.664 73.7819 206.647 66.2234 201.211 58.2576C198.655 54.5139 198.752 53.0765 201.91 47.877C207.088 39.35 207.932 33.245 204.85 26.6265C202.105 20.7303 196.038 14.5785 197.493 19.1647C197.863 20.334 196.627 19.5149 193.235 16.3434C188.762 12.1594 185.347 10.1695 185.347 11.7476C185.347 12.1257 185.841 13.6187 186.446 15.0649C188.045 18.8929 187.804 19.4988 185.53 17.3676C182.612 14.6327 177.83 12.4268 172.265 11.2472C167.258 10.1857 163.368 9.89334 163.368 10.5791ZM132.232 14.4986C135.476 15.9881 138.096 18.5244 137.457 19.5574C137.23 19.9252 134.232 20.4241 130.795 20.6666C124.411 21.1172 119.167 22.8366 117.307 25.0895C115.832 26.8763 117.485 28.5042 120.783 28.5116C128.435 28.5269 137.687 31.2677 141.292 34.5858C144.689 37.7126 145.991 43.8908 143.252 43.8908C142.719 43.8908 140.845 43.2388 139.089 42.4417C135.447 40.7896 130.223 40.5076 129.067 41.901C127.997 43.1897 128.777 44.1604 132.33 45.962C135.878 47.7606 139.458 51.1643 141.213 54.4084C143.085 57.8679 142.953 66.9099 140.982 70.2653C138.975 73.6823 137.513 73.5556 136.745 69.899C135.299 63.0116 134.504 60.5668 133.151 58.8474C131.421 56.648 130.028 57.41 129.261 60.9749C128.065 66.5275 125.414 68.9796 122.37 67.3495C121.046 66.6418 120.876 65.8395 120.876 60.3009C120.876 56.8634 120.535 53.4135 120.118 52.634C119.215 50.9467 117.539 50.7782 116.948 52.316C116.142 54.4172 114.523 53.3922 112.784 49.68C110.575 44.9634 108.32 43.1582 104.637 43.1582C101.146 43.1582 100.203 44.7817 102.467 46.8909C105.73 49.9313 104.703 50.3775 95.4159 49.9496C86.0619 49.5188 80.8237 50.272 75.5818 52.8025L72.4118 54.3322L72.8726 57.7199C73.4316 61.8262 73.0199 62.4182 66.6629 66.6491C57.2012 72.946 41.8229 90.0367 36.9298 99.6942C34.844 103.809 34.5956 108.722 36.373 110.685C38.1452 112.643 38.9466 112.388 42.7233 108.664C46.3746 105.065 47.4428 104.897 48.9197 107.687C50.059 109.84 49.6868 113.931 47.1578 127.044C46.1468 132.282 45.1285 140.75 44.894 145.863C44.4779 154.936 44.5153 155.256 46.4867 159.285C50.3344 167.15 54.9411 166.149 54.9411 157.448C54.9411 155.119 54.4129 150.458 53.7675 147.088C51.7572 136.595 53.333 128.491 58.0708 124.953C59.6701 123.759 60.1962 123.673 61.1346 124.452C62.8299 125.859 62.5222 128.17 59.8972 133.739C56.9763 139.936 56.2708 147.977 58.1617 153.526C60.4387 160.21 59.5859 166.587 55.221 175.508C52.5799 180.906 54.0209 184.774 59.0232 185.712C62.7947 186.419 64.145 188.428 63.8409 192.875C63.1669 202.705 63.301 204.149 65.0592 206.02C65.9904 207.011 67.4014 209.987 68.1956 212.632C69.5048 216.996 70.1627 217.927 75.2939 222.676C86.645 233.181 102.883 242.413 119.734 247.944C140.196 254.659 164.47 258.433 188.277 258.599L197.435 258.663L184.614 261.138C168.613 264.226 164.863 265.1 147.797 269.712C134.716 273.246 133.99 273.363 132.662 272.161C131.895 271.467 130.853 269.851 130.347 268.571C127.909 262.403 125.272 262.257 109.337 267.407C93.8869 272.401 87.5549 272.985 85.7344 269.584C84.4897 267.257 85.6553 265.931 90.0026 264.726C98.783 262.294 101.828 259.845 101.828 255.214C101.828 250.697 100.061 250.18 83.1812 249.759C70.0747 249.432 68.2183 249.23 65.9303 247.886C62.6057 245.933 62.5654 243.932 65.8292 242.833C68.6623 241.879 70.326 239.938 70.326 237.587C70.326 234.35 66.7743 231.522 56.6203 226.674C45.4794 221.355 38.4638 216.488 32.6059 210.014C22.747 199.12 20.862 193.812 24.4555 187.062C25.5083 185.085 26.3691 183.133 26.3691 182.723C26.3691 182.314 25.5163 180.377 24.4738 178.418L22.5778 174.857L25.2064 172.165C28.4805 168.812 28.5149 167.276 25.4819 159.884C22.1456 151.753 22.1434 145.573 25.4731 139.805C29.5113 132.812 28.5933 128.649 21.7207 122.778C14.4604 116.575 11.8648 107.957 15.5923 102.426C18.325 98.371 19.3543 99.1103 19.7756 105.431C20.1008 110.308 20.306 110.926 21.6012 110.926C22.6599 110.926 23.7273 109.619 25.4892 106.164C27.6981 101.832 27.8834 100.972 27.5427 96.6398C27.3369 94.0207 26.9647 90.5591 26.7156 88.9473C26.3185 86.375 26.6468 85.3904 29.4021 80.8884C32.0886 76.4992 32.5436 75.1776 32.5568 71.7196C32.57 68.203 32.1275 66.9326 29.1421 61.9156C25.5288 55.8443 25.2951 54.1051 27.5098 49.7518C29.3486 46.1371 35.8667 40.9603 38.5789 40.9603C41.9943 40.9603 43.9409 47.7584 41.2046 50.1306C40.4991 50.7423 38.6866 52.2596 37.1752 53.5036C33.9392 56.1667 33.696 58.0964 35.8931 63.6717C37.6799 68.2045 37.7408 71.4888 36.1319 76.5901C35.1576 79.6818 35.0792 80.8598 35.7502 82.3324C38.4682 88.2982 45.7424 79.7162 49.0838 66.6029C50.9777 59.1683 54.9997 50.1694 57.6782 47.3737C59.0276 45.9649 60.3449 45.3561 62.0445 45.3561C63.9743 45.3561 65.3845 44.5223 68.8608 41.3266C71.2711 39.1104 73.6836 37.2972 74.2213 37.2972C75.6258 37.2972 78.176 34.3938 82.7805 27.5547C87.2766 20.8754 92.0217 16.7837 95.2701 16.7837C96.9742 16.7837 97.7163 17.3566 99.0592 19.7083C101.005 23.115 102.361 23.3656 104.802 20.7677C110.871 14.3067 124.855 11.111 132.232 14.4986ZM175.388 18.1735C176.253 19.1296 176.878 21.1391 177.062 23.5531L177.356 27.4068L175.948 23.4975C175.174 21.3472 173.809 18.5999 172.916 17.391C171.514 15.495 171.478 15.2935 172.65 15.9214C173.396 16.3207 174.628 17.3346 175.388 18.1735ZM57.5009 21.5882C53.7308 22.8784 52.3601 24.6345 50.5527 30.4867C48.9366 35.7184 48.6978 38.4394 49.7945 39.1178C51.5711 40.2152 61.6013 28.4207 62.6614 23.9869C63.3288 21.1948 61.3434 20.2724 57.5009 21.5882ZM61.5346 23.6872C61.5346 26.1481 54.3023 35.6466 51.1095 37.3778C49.9967 37.9822 49.8919 37.7741 50.2509 35.6664C51.2048 30.0676 53.6949 24.688 55.9778 23.296C59.2511 21.2996 61.5346 21.4608 61.5346 23.6872ZM169.614 42.3523C168.313 47.2895 167.764 47.8301 167.764 44.1758C167.764 41.6746 169.615 37.4386 170.376 38.1998C170.521 38.3448 170.179 40.2138 169.614 42.3523ZM189.246 42.8783C192.854 45.1055 193.811 45.4066 195.232 44.759C196.162 44.3355 197.12 44.1868 197.362 44.4286C197.603 44.6696 197.801 46.8858 197.801 49.3525C197.801 53.8926 198.125 54.7608 202.917 63.079C204.443 65.7275 204.738 67.1986 204.749 72.217C204.76 77.6876 204.573 78.4693 202.554 81.3749C199.527 85.7296 195.156 87.8483 189.197 87.8483C186.651 87.8483 183.486 87.397 182.165 86.8447C176.744 84.5794 172.16 76.0392 172.16 68.2023C172.16 65.545 171.948 65.137 170.569 65.137C168.33 65.137 166.299 63.0614 166.299 60.7742C166.299 58.3001 167.535 57.0781 170.036 57.0781C171.53 57.0781 172.395 57.7213 173.562 59.7001C176.193 64.1596 176.922 62.698 176.922 52.9585C176.922 45.8081 177.16 43.8344 178.221 42.2138C180.136 39.2855 183.781 39.5053 189.246 42.8783ZM181.623 49.6222C180.295 50.2976 179.056 51.3453 178.873 51.9497C178.623 52.7739 178.925 52.7065 180.081 51.6801C180.93 50.9277 182.709 50.0888 184.035 49.8163C185.76 49.4617 186.103 49.1892 185.243 48.8573C184.582 48.6023 182.953 48.9467 181.623 49.6222ZM191.208 48.9393C191.208 49.2976 192.361 49.7262 193.772 49.891C196.41 50.1987 197.233 49.5203 195.177 48.7313C193.463 48.0734 191.208 48.1913 191.208 48.9393ZM192.608 55.0004C192.016 56.1066 192.009 57.0129 192.582 58.2693C193.574 60.4482 194.738 60.495 195.518 58.3873C196.763 55.0209 194.197 52.0325 192.608 55.0004ZM182.046 55.6187C181.796 56.0246 182.142 56.9088 182.817 57.5836C183.929 58.6957 183.936 58.8891 182.889 59.6547C182.024 60.2877 181.944 60.709 182.571 61.3354C183.788 62.553 185.347 61.0181 185.347 58.6005C185.347 55.7982 183.158 53.8201 182.046 55.6187ZM194.138 56.7118C194.138 57.3162 193.808 57.8107 193.405 57.8107C193.002 57.8107 192.673 57.3162 192.673 56.7118C192.673 56.1074 193.002 55.6128 193.405 55.6128C193.808 55.6128 194.138 56.1074 194.138 56.7118ZM167.764 58.4576C167.764 58.8137 168.505 59.3141 169.412 59.569C170.951 60.002 170.976 60.098 169.779 61.0174C168.151 62.2665 168.116 63.2417 169.72 62.6263C170.395 62.3676 171.212 62.5786 171.541 63.0973C171.95 63.7435 172.141 63.5223 172.149 62.3896C172.154 61.4834 171.5 60.0818 170.694 59.276C169.162 57.7433 167.764 57.3535 167.764 58.4576ZM189.792 60.4687C189.728 62.4695 191.517 63.953 193.401 63.4607C194.208 63.2497 195.031 63.3384 195.228 63.6578C195.878 64.7084 193.833 65.6974 189.925 66.2227C187.809 66.507 186.257 67.0301 186.477 67.3854C187.123 68.4316 193.652 67.2704 195.156 65.841C197.025 64.0651 196.199 62.2065 193.54 62.2065C192.077 62.2065 191.188 61.7017 190.636 60.5581C189.852 58.9294 189.841 58.9287 189.792 60.4687ZM176.555 65.137L173.991 65.6769L176.738 65.7729C178.25 65.8264 179.486 65.5399 179.486 65.137C179.486 64.734 179.403 64.4476 179.303 64.501C179.202 64.5538 177.966 64.8402 176.555 65.137ZM174.357 68.0675C174.357 68.4704 175.346 68.8001 176.555 68.8001C177.764 68.8001 178.753 68.4704 178.753 68.0675C178.753 67.6645 177.764 67.3348 176.555 67.3348C175.346 67.3348 174.357 67.6645 174.357 68.0675ZM182.526 70.8382C182.465 71.7577 181.917 73.7043 181.308 75.1637C180.073 78.1198 180.431 79.5345 181.706 76.7359C182.475 75.0486 182.84 74.9593 188.876 74.9886C192.375 75.0047 196.308 74.7322 197.618 74.382C199.53 73.8706 199.999 73.9622 199.999 74.8464C199.999 76.5139 198.184 77.6795 194.899 78.1205C193.272 78.3389 191.94 78.84 191.94 79.2349C191.94 80.0539 196.251 79.3982 198.951 78.1674C201.176 77.1535 201.953 74.8354 200.54 73.423C199.595 72.4779 198.993 72.4874 195.57 73.5043C188.684 75.549 183.462 74.5651 182.936 71.1247C182.678 69.4426 182.621 69.4023 182.526 70.8382ZM175.287 70.773C176 70.9591 176.989 70.9467 177.485 70.7459C177.981 70.5452 177.398 70.3935 176.189 70.4082C174.98 70.4229 174.574 70.587 175.287 70.773ZM273.318 71.1811C273.365 71.9137 273.45 71.9137 273.745 71.1811C274.189 70.0814 276.65 69.9628 277.297 71.0097C277.551 71.4192 278.116 71.5335 278.553 71.2632C279.009 70.9811 279.138 71.11 278.856 71.5672C278.586 72.0046 278.963 72.7973 279.696 73.3292C280.428 73.8603 281.617 75.119 282.34 76.1263L283.653 77.9579L283.113 76.1263C282.817 75.119 281.962 73.864 281.215 73.3372C279.135 71.8742 279.585 71.0324 282.389 71.1379C283.783 71.1906 284.782 71.4624 284.609 71.7423C284.436 72.0222 285.066 72.1042 286.009 71.924C292.007 70.7774 316.795 79.0847 328.386 86.1259C332.527 88.641 332.639 88.7898 331.543 90.3056C329.257 93.4661 326.92 98.5645 326.036 102.318C325.538 104.433 324.943 106.164 324.715 106.164C324.486 106.164 320.742 103.844 316.394 101.009C301.892 91.5525 285.105 84.4885 273.769 83.0724C269.538 82.5434 269.533 82.5405 270.846 80.9829C272.137 79.4532 272.134 79.4459 270.696 80.6137C269.549 81.5463 266.849 81.8943 258.242 82.2174C246.801 82.6467 237.103 84.4849 228.6 87.8374L224.676 89.3839L221.861 86.6358C220.314 85.1244 219.047 84.1662 219.047 84.5068C219.047 84.8468 220.092 86.1245 221.369 87.345L223.692 89.5649L216.974 92.9013C213.279 94.7358 210.256 96.5072 210.256 96.8369C210.256 97.7051 212.645 97.1717 213.842 96.0362C214.404 95.5028 215.064 95.338 215.307 95.6698C215.551 96.0017 216.285 96.6032 216.938 97.0062C221.567 99.859 225.545 102.899 224.92 103.107C223.753 103.496 224.049 105.431 225.274 105.431C225.879 105.431 226.373 105.112 226.373 104.721C226.373 103.327 228.49 104.854 228.712 106.409C228.868 107.513 229.382 107.938 230.402 107.806C231.837 107.62 233.699 110.293 233.699 112.537C233.699 113.062 234.238 113.49 234.897 113.49C236.495 113.49 239.261 116.546 238.98 118.002C238.801 118.931 239.366 119.127 241.819 118.989C244.331 118.846 245.675 119.343 249.3 121.75C251.73 123.364 256.054 125.773 258.91 127.102C263.072 129.04 265.529 130.957 271.29 136.764C277.142 142.663 278.288 144.165 277.461 144.852C275.36 146.595 270.981 147.92 265.797 148.382C258.104 149.068 253.758 151.576 247.984 158.665L244.847 162.515L244.002 159.159C242.138 151.757 238.127 146.376 231.364 142.201C229.819 141.249 227.197 138.311 225.245 135.347L221.828 130.161L226.808 125.143C229.546 122.384 231.603 119.942 231.378 119.717C231.153 119.492 228.739 121.608 226.012 124.421L221.055 129.533L216.661 126.55C213.552 124.439 211.919 122.738 211.078 120.734C209.91 117.95 208.787 117 208.794 118.802C208.802 120.705 212.276 125.354 215.116 127.26C217.828 129.08 218.02 129.423 217.478 131.467C216.941 133.491 212.79 138.358 212.236 137.613C212.108 137.441 211.072 134.828 209.933 131.806C208.794 128.784 205.403 121.466 202.398 115.544C199.393 109.621 197.136 104.45 197.382 104.051C197.628 103.653 199.352 104.954 201.212 106.943C203.073 108.933 204.842 110.56 205.142 110.56C205.443 110.56 205.925 108.335 206.214 105.615C206.503 102.894 207.53 98.7835 208.497 96.4787C209.464 94.1738 210.256 91.5056 210.256 90.5495C210.256 87.3011 229.093 78.2597 243.993 74.3556C252.215 72.2017 259.533 71.1372 271.246 70.3935C272.413 70.3195 273.285 70.6507 273.318 71.1811ZM286.354 73.7453C285.443 74.9072 285.469 74.9329 286.631 74.0222C287.851 73.0647 288.239 72.4632 287.636 72.4632C287.484 72.4632 286.907 73.0398 286.354 73.7453ZM275.458 73.5621C275.458 73.7636 275.623 73.9285 275.825 73.9285C276.026 73.9285 276.191 73.7636 276.191 73.5621C276.191 73.3607 276.026 73.1958 275.825 73.1958C275.623 73.1958 275.458 73.3607 275.458 73.5621ZM276.924 75.0274C276.924 75.2289 277.088 75.3937 277.29 75.3937C277.491 75.3937 277.656 75.2289 277.656 75.0274C277.656 74.8259 277.491 74.6611 277.29 74.6611C277.088 74.6611 276.924 74.8259 276.924 75.0274ZM278.389 76.4927C278.389 76.6941 278.554 76.859 278.755 76.859C278.957 76.859 279.121 76.6941 279.121 76.4927C279.121 76.2912 278.957 76.1263 278.755 76.1263C278.554 76.1263 278.389 76.2912 278.389 76.4927ZM279.854 77.9579C279.854 78.1594 280.019 78.3242 280.22 78.3242C280.422 78.3242 280.587 78.1594 280.587 77.9579C280.587 77.7564 280.422 77.5916 280.22 77.5916C280.019 77.5916 279.854 77.7564 279.854 77.9579ZM281.319 78.6905C281.319 78.892 281.484 79.0568 281.686 79.0568C281.887 79.0568 282.052 78.892 282.052 78.6905C282.052 78.4891 281.887 78.3242 281.686 78.3242C281.484 78.3242 281.319 78.4891 281.319 78.6905ZM208.547 91.1437C208.349 92.3533 207.508 95.1563 206.68 97.3725C205.853 99.5887 205.165 102.784 205.151 104.472C205.138 106.161 204.847 107.716 204.505 107.928C202.773 108.998 194.797 96.4516 193.689 90.9158C193.29 88.9209 193.433 88.581 194.671 88.581C195.468 88.581 197.239 87.8124 198.608 86.8732L201.098 85.1655L205.003 87.0549C208.639 88.8139 208.883 89.0953 208.547 91.1437ZM192.217 91.6946C191.679 94.7453 188.76 100.794 186.508 103.522L184.758 105.642L185.773 101.324C186.332 98.9491 186.794 95.275 186.8 93.1599L186.812 89.3136H189.724C192.607 89.3136 192.632 89.337 192.217 91.6946ZM90.8393 95.9644C85.0399 96.9417 76.8675 101.215 71.7656 105.939C69.3377 108.187 67.4937 110.169 67.6688 110.344C67.8432 110.519 69.7487 108.968 71.9034 106.898C74.2939 104.601 78.1936 101.978 81.908 100.17C87.0912 97.645 88.8993 97.1483 94.0796 96.8252C97.7639 96.5952 101.663 96.8054 103.966 97.3578C108.349 98.4099 109.992 97.8377 105.749 96.7373C101.17 95.5497 95.1522 95.2376 90.8393 95.9644ZM216.117 99.5704C216.117 99.9733 216.446 100.303 216.849 100.303C217.252 100.303 217.582 99.9733 217.582 99.5704C217.582 99.1674 217.252 98.8377 216.849 98.8377C216.446 98.8377 216.117 99.1674 216.117 99.5704ZM213.186 100.669C213.186 100.871 213.351 101.036 213.552 101.036C213.754 101.036 213.919 100.871 213.919 100.669C213.919 100.468 213.754 100.303 213.552 100.303C213.351 100.303 213.186 100.468 213.186 100.669ZM220.512 102.135C220.512 102.739 220.842 103.233 221.245 103.233C221.648 103.233 221.977 102.739 221.977 102.135C221.977 101.53 221.648 101.036 221.245 101.036C220.842 101.036 220.512 101.53 220.512 102.135ZM139.493 104.47L142.358 107.132L140.638 108.524C137.555 111.021 133.331 108.799 133.331 104.681C133.331 100.855 135.521 100.78 139.493 104.47ZM217.254 102.439C217.018 102.82 217.138 103.325 217.519 103.561C217.901 103.797 218.406 103.677 218.642 103.296C218.878 102.914 218.758 102.409 218.377 102.173C217.995 101.937 217.49 102.057 217.254 102.439ZM214.163 103.722C214.431 103.99 214.871 103.99 215.14 103.722C215.408 103.453 215.188 103.233 214.651 103.233C214.114 103.233 213.894 103.453 214.163 103.722ZM221.588 104.735C220.892 105.862 221.846 106.589 222.786 105.648C223.312 105.122 223.325 104.713 222.824 104.403C222.414 104.15 221.858 104.299 221.588 104.735ZM218.314 106.164C218.314 106.567 218.644 106.897 219.047 106.897C219.45 106.897 219.78 106.567 219.78 106.164C219.78 105.761 219.45 105.431 219.047 105.431C218.644 105.431 218.314 105.761 218.314 106.164ZM193.405 109.094C193.405 111.658 192.225 112.611 191.578 110.571C191.002 108.757 191.795 105.988 192.726 106.563C193.099 106.794 193.405 107.933 193.405 109.094ZM195.88 114.486C191.602 127.064 185.035 137.895 175.974 147.316C165.994 157.693 154.437 164.678 140.291 168.881C134.887 170.487 132.135 170.855 125.033 170.921L116.369 171.001L114.227 168.609C110.432 164.369 111.862 157.145 116.874 155.24C117.791 154.891 122.558 154.237 127.468 153.785C132.379 153.333 139.415 152.19 143.105 151.245L149.815 149.526L155.126 154.75C158.048 157.624 160.438 159.685 160.438 159.331C160.438 158.976 158.244 156.534 155.561 153.904L150.684 149.122L153.188 148.255C162.808 144.925 170.933 139.313 182.495 128.013C190.465 120.222 191.947 118.404 193.301 114.744C194.164 112.413 194.871 109.748 194.871 108.823C194.871 106.382 195.761 105.87 196.759 107.736C197.47 109.064 197.312 110.275 195.88 114.486ZM225.282 106.885C224.742 107.759 225.427 109.094 226.416 109.094C227.308 109.094 227.314 107.111 226.424 106.562C226.049 106.33 225.535 106.475 225.282 106.885ZM91.5719 108.072C87.5689 109.144 81.5556 112.51 82.305 113.259C82.5197 113.474 83.6823 112.948 84.8875 112.089C88.0883 109.81 92.6994 108.369 96.9756 108.311C99.7486 108.272 100.346 108.094 99.2643 107.629C97.2555 106.766 96.2276 106.826 91.5719 108.072ZM215.384 107.263C215.384 107.464 215.549 107.629 215.75 107.629C215.952 107.629 216.117 107.464 216.117 107.263C216.117 107.061 215.952 106.897 215.75 106.897C215.549 106.897 215.384 107.061 215.384 107.263ZM161.932 109.109C165.166 110.759 165.582 112.15 163.315 113.738C160.289 115.858 154.984 112.177 156.263 108.843C156.878 107.239 158.408 107.311 161.932 109.109ZM222.118 108.417C222.262 108.85 222.694 109.204 223.076 109.204C223.459 109.204 223.89 108.85 224.035 108.417C224.179 107.984 223.748 107.629 223.076 107.629C222.405 107.629 221.974 107.984 222.118 108.417ZM219.291 109.583C219.56 109.851 219.999 109.851 220.268 109.583C220.536 109.314 220.317 109.094 219.78 109.094C219.243 109.094 219.023 109.314 219.291 109.583ZM229.304 110.193C229.304 110.798 229.798 111.292 230.402 111.292C231.007 111.292 231.501 110.798 231.501 110.193C231.501 109.589 231.007 109.094 230.402 109.094C229.798 109.094 229.304 109.589 229.304 110.193ZM216.117 110.193C216.117 110.395 216.281 110.56 216.483 110.56C216.684 110.56 216.849 110.395 216.849 110.193C216.849 109.992 216.684 109.827 216.483 109.827C216.281 109.827 216.117 109.992 216.117 110.193ZM226.373 110.926C226.373 111.598 226.728 112.029 227.161 111.884C227.594 111.74 227.948 111.308 227.948 110.926C227.948 110.544 227.594 110.112 227.161 109.968C226.728 109.823 226.373 110.254 226.373 110.926ZM223.147 111.178C222.894 111.588 223.043 112.144 223.479 112.414C224.606 113.11 225.333 112.157 224.392 111.216C223.866 110.69 223.457 110.678 223.147 111.178ZM220.146 112.758C220.395 113.161 220.744 113.49 220.922 113.49C221.1 113.49 221.245 113.161 221.245 112.758C221.245 112.355 220.895 112.025 220.469 112.025C220.043 112.025 219.897 112.355 220.146 112.758ZM230.525 112.514C229.682 113.356 229.991 114.223 231.135 114.223C231.74 114.223 232.234 113.728 232.234 113.124C232.234 111.98 231.367 111.67 230.525 112.514ZM187.505 114.542C189.039 116.39 188.144 120.274 185.896 121.526C184.087 122.534 183.676 122.534 181.867 121.526C178.692 119.758 178.835 117.129 182.21 115.218C185.602 113.297 186.388 113.196 187.505 114.542ZM227.106 114.223C227.106 114.626 227.6 114.955 228.205 114.955C228.809 114.955 229.304 114.626 229.304 114.223C229.304 113.82 228.809 113.49 228.205 113.49C227.6 113.49 227.106 113.82 227.106 114.223ZM129.668 115.688C131.253 117.273 131.672 120.816 130.275 120.816C128.645 120.816 126.737 118.385 126.737 116.307C126.737 113.854 127.643 113.663 129.668 115.688ZM224.175 114.955C224.175 115.358 224.505 115.688 224.908 115.688C225.311 115.688 225.64 115.358 225.64 114.955C225.64 114.553 225.311 114.223 224.908 114.223C224.505 114.223 224.175 114.553 224.175 114.955ZM234.573 115.743C234.717 116.176 235.148 116.531 235.531 116.531C235.913 116.531 236.345 116.176 236.489 115.743C236.633 115.31 236.203 114.955 235.531 114.955C234.859 114.955 234.428 115.31 234.573 115.743ZM221.245 116.054C221.245 116.256 221.41 116.421 221.611 116.421C221.813 116.421 221.977 116.256 221.977 116.054C221.977 115.853 221.813 115.688 221.611 115.688C221.41 115.688 221.245 115.853 221.245 116.054ZM231.501 116.787C231.501 117.391 231.831 117.886 232.234 117.886C232.637 117.886 232.967 117.391 232.967 116.787C232.967 116.183 232.637 115.688 232.234 115.688C231.831 115.688 231.501 116.183 231.501 116.787ZM149.574 117.633C150.311 118.3 150.914 119.592 150.914 120.503C150.914 121.901 150.334 122.285 147.215 122.954C145.18 123.39 143.202 123.747 142.819 123.747C141.67 123.747 142.034 118.812 143.273 117.572C144.774 116.071 147.881 116.102 149.574 117.633ZM228.243 117.091C228.008 117.473 228.127 117.978 228.509 118.213C228.89 118.449 229.395 118.33 229.631 117.948C229.867 117.567 229.748 117.062 229.366 116.826C228.984 116.59 228.479 116.709 228.243 117.091ZM225.152 118.375C225.421 118.643 225.86 118.643 226.129 118.375C226.397 118.106 226.178 117.886 225.64 117.886C225.103 117.886 224.884 118.106 225.152 118.375ZM235.602 118.504C235.348 118.915 235.498 119.471 235.934 119.74C237.061 120.436 237.787 119.483 236.847 118.542C236.321 118.016 235.911 118.004 235.602 118.504ZM213.451 120.45C212.808 122.126 213.708 123.747 215.283 123.747C217.158 123.747 217.798 121.87 216.399 120.471C214.982 119.055 213.99 119.047 213.451 120.45ZM232.234 120.084C232.234 120.487 232.564 120.816 232.967 120.816C233.37 120.816 233.699 120.487 233.699 120.084C233.699 119.681 233.37 119.351 232.967 119.351C232.564 119.351 232.234 119.681 232.234 120.084ZM243.223 120.816C243.223 121.219 243.553 121.549 243.956 121.549C244.359 121.549 244.688 121.219 244.688 120.816C244.688 120.414 244.359 120.084 243.956 120.084C243.553 120.084 243.223 120.414 243.223 120.816ZM171.427 122.282C173.39 124.245 173.4 127.41 171.442 127.41C169.101 127.41 164.101 125.138 164.101 124.075C164.101 122.844 166.936 120.816 168.66 120.816C169.376 120.816 170.621 121.476 171.427 122.282ZM215.75 121.549C215.999 121.952 215.853 122.282 215.427 122.282C215.001 122.282 214.651 121.952 214.651 121.549C214.651 121.146 214.796 120.816 214.974 120.816C215.152 120.816 215.501 121.146 215.75 121.549ZM239.56 121.549C239.56 121.952 239.87 122.282 240.25 122.282C240.629 122.282 241.143 121.952 241.392 121.549C241.641 121.146 241.33 120.816 240.702 120.816C240.074 120.816 239.56 121.146 239.56 121.549ZM236.63 122.282C236.63 122.685 236.959 123.014 237.362 123.014C237.765 123.014 238.095 122.685 238.095 122.282C238.095 121.879 237.765 121.549 237.362 121.549C236.959 121.549 236.63 121.879 236.63 122.282ZM247.619 123.058C247.619 123.484 247.949 123.63 248.352 123.381C248.755 123.132 249.084 122.783 249.084 122.605C249.084 122.427 248.755 122.282 248.352 122.282C247.949 122.282 247.619 122.631 247.619 123.058ZM233.699 123.381C233.699 123.582 233.864 123.747 234.066 123.747C234.267 123.747 234.432 123.582 234.432 123.381C234.432 123.179 234.267 123.014 234.066 123.014C233.864 123.014 233.699 123.179 233.699 123.381ZM244.322 123.747C244.073 124.15 244.219 124.48 244.645 124.48C245.072 124.48 245.421 124.15 245.421 123.747C245.421 123.344 245.276 123.014 245.098 123.014C244.92 123.014 244.571 123.344 244.322 123.747ZM241.025 124.846C241.025 125.047 241.19 125.212 241.392 125.212C241.593 125.212 241.758 125.047 241.758 124.846C241.758 124.644 241.593 124.48 241.392 124.48C241.19 124.48 241.025 124.644 241.025 124.846ZM238.095 125.579C238.095 125.78 238.26 125.945 238.461 125.945C238.663 125.945 238.828 125.78 238.828 125.579C238.828 125.377 238.663 125.212 238.461 125.212C238.26 125.212 238.095 125.377 238.095 125.579ZM223.798 135.452C226.234 139.252 228.502 141.619 232.638 144.679C235.699 146.942 238.096 148.845 237.965 148.908C237.835 148.971 233.773 148.858 228.937 148.656L220.146 148.29L218.851 144.627C217.149 139.811 217.82 130.341 219.863 130.341C220.225 130.341 221.996 132.641 223.798 135.452ZM271.97 131.74C274.896 132.509 278.197 133.34 279.305 133.585C281.025 133.966 281.319 134.399 281.319 136.547C281.319 139.36 279.995 142.795 278.91 142.795C278.519 142.795 275.398 139.993 271.973 136.568C268.548 133.143 265.95 130.341 266.198 130.341C266.447 130.341 269.044 130.97 271.97 131.74ZM217.927 146.642C218.41 148.425 218.275 148.656 216.745 148.653C215.225 148.649 214.881 148.078 213.886 143.906L212.755 139.163L214.619 137.293L216.483 135.424L216.932 140.025C217.178 142.556 217.626 145.534 217.927 146.642ZM231.092 138.742C229.955 139.602 229.899 139.823 230.812 139.841C231.44 139.854 232.594 139.38 233.376 138.789C234.513 137.929 234.569 137.709 233.656 137.69C233.028 137.677 231.874 138.151 231.092 138.742ZM1.79278 140.198C-0.377957 142.37 -0.561109 145.92 1.15468 152.58C3.07486 160.03 10.7292 175.763 12.434 175.763C12.7344 175.763 12.3461 173.208 11.5703 170.086C10.719 166.655 10.0003 160.493 9.75485 154.517C9.31381 143.746 8.42149 140.601 5.42069 139.234C3.83751 138.513 3.34812 138.643 1.79278 140.198ZM6.5101 141.414C8.20757 143.237 8.62369 145.829 8.73212 155.25C8.77607 159.078 9.24495 164.271 9.7739 166.789C10.3028 169.307 10.6069 171.368 10.4486 171.368C10.2911 171.368 8.56215 167.988 6.6068 163.858C2.21624 154.584 0.204474 146.234 1.44992 142.459C2.44921 139.432 4.30566 139.049 6.5101 141.414ZM221.977 142.063C221.977 142.466 222.472 142.795 223.076 142.795C224.401 142.795 224.492 143.65 223.296 144.847C222.613 145.53 222.699 145.726 223.685 145.726C225.577 145.726 226.124 143.496 224.52 142.323C222.912 141.146 221.977 141.051 221.977 142.063ZM394.535 147.004C390.636 154.631 381.294 164.107 373.92 167.915C367.997 170.973 361.115 172.806 355.497 172.822C353.381 172.828 351.65 173.163 351.65 173.566C351.65 175.715 365.958 173.079 373.134 169.606C382.211 165.214 390.603 156.92 396.007 146.997C397.053 145.077 397.803 143.015 397.673 142.414C397.544 141.814 396.132 143.88 394.535 147.004ZM375.158 147.297C371.999 151.1 365.227 155.508 360.659 156.735C358.579 157.294 357.671 157.804 358.433 157.985C360.083 158.376 364.481 156.97 367.768 155.002C370.811 153.178 377.111 147.433 378.106 145.573C379.348 143.252 377.733 144.197 375.158 147.297ZM244.279 151.197C243.142 152.057 243.086 152.278 243.999 152.296C244.627 152.309 245.781 151.835 246.563 151.244C247.7 150.384 247.756 150.163 246.843 150.145C246.215 150.132 245.061 150.606 244.279 151.197ZM32.2476 159.035C32.271 164.403 34.6352 174.701 36.2535 176.489C37.9591 178.374 40.058 178.377 40.6551 176.495C41.3906 174.179 38.9715 164.828 36.4037 160.057C33.2938 154.279 32.2249 154.016 32.2476 159.035ZM218.602 156.409C218.847 157.046 219.047 158.613 219.047 159.89C219.047 162.181 218.969 162.231 213.587 163.455C203.193 165.817 195.09 171.159 191.885 177.763C190.531 180.552 190.194 182.442 190.219 187.119C190.259 194.534 192.641 201.891 198.277 212.003C200.727 216.4 202.014 219.415 201.512 219.583C201.053 219.736 199.733 220.656 198.579 221.627L196.48 223.393L193.15 217.711C183.028 200.436 180.421 186.154 185.31 174.75C188.428 167.476 197.866 160.83 210.293 157.157C217.725 154.96 218.036 154.933 218.602 156.409ZM35.7942 160.928C38.1796 165.668 39.825 172.147 39.4441 175.304C39.1913 177.398 39.1818 177.402 37.5605 176.037C36.3847 175.046 35.5187 172.782 34.4469 167.896C33.03 161.434 32.5538 156.715 33.3187 156.715C33.5143 156.715 34.6279 158.611 35.7942 160.928ZM197.068 161.477C197.068 161.679 196.904 161.844 196.702 161.844C196.501 161.844 196.336 161.679 196.336 161.477C196.336 161.276 196.501 161.111 196.702 161.111C196.904 161.111 197.068 161.276 197.068 161.477ZM191.686 165.144C189.457 166.959 186.928 169.701 186.065 171.236C185.202 172.772 183.339 174.652 181.924 175.414C180.51 176.175 177.145 178.976 174.447 181.637C165.044 190.91 161.378 202.169 162.106 219.532L162.512 229.245H160.695C159.694 229.245 158.271 229.569 157.532 229.964C155.584 231.007 155.252 229.621 154.806 218.622C154.168 202.827 157.724 190.182 165.58 180.316C171.105 173.377 180.697 166.866 190.706 163.263C196.129 161.312 196.207 161.461 191.686 165.144ZM1.6067 175.91C0.154656 177.362 0.614739 180.305 2.92321 184.329C5.15549 188.222 12.4758 196.277 13.7806 196.277C14.1798 196.277 13.5381 194.489 12.3542 192.304C11.171 190.119 9.39001 185.942 8.39731 183.022C5.95551 175.844 3.86389 173.653 1.6067 175.91ZM182.676 179.586C180.067 189.64 183.423 203.155 192.225 218.053C195.63 223.816 195.954 224.728 195.348 226.841C194.479 229.87 196.141 232.595 199.786 234.118C201.236 234.724 202.103 235.478 201.744 235.82C200.459 237.042 174.105 243.864 170.572 243.889C168.691 243.902 167.792 240.303 169.106 238.015C170.664 235.299 169.71 232.41 166.663 230.612C163.529 228.763 163.044 226.711 163.055 215.325C163.066 202.752 165.373 194.558 171.084 186.8C173.845 183.048 181.858 175.766 183.225 175.764C183.467 175.763 183.221 177.484 182.676 179.586ZM5.04486 177.5C5.50348 178.054 6.40533 180.279 7.04783 182.446C7.69107 184.613 9.01491 188.035 9.99075 190.05L11.7644 193.713L8.41563 190.05C4.65438 185.936 1.07702 179.284 1.72172 177.604C2.2514 176.223 3.94081 176.171 5.04486 177.5ZM120.424 186.274L118.425 187.994L114.199 186.551C111.693 185.695 109.215 185.298 108.111 185.575C106.028 186.097 104.026 189.363 104.026 192.24C104.026 194.43 102.386 197.87 97.3009 206.345C95.3075 209.667 93.873 212.702 94.1126 213.089C94.3514 213.476 96.1903 214.687 98.1977 215.779L101.848 217.766L99.457 219.823C98.142 220.955 96.5939 221.807 96.0159 221.716C95.4379 221.625 94.1192 219.903 93.0854 217.889C91.6275 215.049 90.7645 214.175 89.24 213.999C86.8736 213.726 85.445 215.843 86.1366 218.599C86.7359 220.986 90.7169 224.454 94.1646 225.591C97.1463 226.575 105.108 226.271 114.283 224.821C120.509 223.838 131.63 224.284 141.726 225.921C145.336 226.506 148.417 226.857 148.574 226.701C148.73 226.545 147.517 225.732 145.877 224.896C144.237 224.059 141.777 222.392 140.409 221.191L137.921 219.007L140.497 210.095C142.321 203.786 142.867 200.84 142.365 200.012C141.975 199.368 139.784 197.852 137.496 196.643C134.282 194.946 133.335 194.062 133.333 192.76C133.33 190.477 131.496 187.09 129.509 185.699C127.047 183.974 122.785 184.244 120.424 186.274ZM130.217 187.892C131.884 189.786 132.482 193.346 131.133 193.346C130.73 193.346 130.4 192.522 130.4 191.515C130.4 187.469 125.327 185.403 121.674 187.962C120.346 188.892 120.027 188.935 120.287 188.145C120.825 186.515 123.976 185.215 126.371 185.634C127.58 185.846 129.31 186.861 130.217 187.892ZM117.791 189.245C121.301 190.616 127.399 193.248 131.341 195.094L138.51 198.45L137.412 200.572C136.809 201.74 135.449 203.723 134.391 204.98C132.803 206.868 131.936 207.266 129.42 207.262C125.152 207.257 121.024 205.979 120.181 204.404C119.321 202.798 115.457 201.079 113.981 201.646C112.378 202.26 106.984 197.986 105.807 195.168C105.026 193.299 104.96 192.182 105.538 190.658C107.346 185.905 108.806 185.737 117.791 189.245ZM38.8294 188.578C38.2756 189.245 38.099 190.598 38.3759 192.058C38.6258 193.371 39.1254 196.722 39.4866 199.504C39.9108 202.769 40.5459 204.788 41.2764 205.197C44.3966 206.943 47.0574 210.007 49.1571 214.272C51.4648 218.959 52.9059 220.064 53.7711 217.811C54.4905 215.935 52.9997 211.674 49.8245 206.534C47.2765 202.409 46.8831 201.203 46.8831 197.522C46.8823 195.166 46.3893 192.321 45.7761 191.134C44.0024 187.704 40.595 186.45 38.8294 188.578ZM127.737 189.004C129.447 190.349 130.543 193.122 129.115 192.491C128.811 192.357 126.969 191.615 125.022 190.842C121.557 189.466 121.519 189.416 123.194 188.487C125.449 187.236 125.497 187.241 127.737 189.004ZM42.5269 188.973C44.8288 190.204 46.2303 193.686 45.7167 196.896C45.2347 199.909 46.1512 202.359 50.5513 209.83C51.8238 211.991 52.7118 214.546 52.7147 216.058C52.7205 218.536 52.6268 218.45 49.9344 213.494C48.1292 210.171 46.0852 207.592 44.1299 206.167C41.4705 204.231 41.1057 203.615 41.0661 200.989C41.0412 199.35 40.5071 196.275 39.8778 194.157C38.9906 191.17 38.9283 190.073 39.6016 189.263C40.636 188.016 40.724 188.007 42.5269 188.973ZM310.849 195.905C318.568 197.915 327.365 203.666 329.837 208.319C330.344 209.273 329.528 208.828 327.625 207.115C318.865 199.226 303.541 196.621 287.913 200.366C286.295 200.752 286.442 200.454 289.166 197.808L292.252 194.812H299.452C303.471 194.812 308.507 195.294 310.849 195.905ZM287.323 198.505C285.494 200.298 282.75 202 280.366 202.82C275.329 204.553 273.482 205.512 261.779 212.459C249.34 219.845 231.625 228.717 230.32 228.216C228.35 227.46 229.373 226.611 236.447 223.126C245.131 218.848 251.12 215.385 262.638 207.985C273.491 201.012 275.093 200.174 282.418 197.642C290.269 194.928 290.866 195.033 287.323 198.505ZM109.621 201.467C112.1 202.999 112.199 203.218 111.757 206.168C111.313 209.128 111.394 209.304 113.643 210.236C115.895 211.168 116.066 211.115 117.734 208.952L119.474 206.696L122.856 207.714C124.716 208.274 127.702 208.732 129.491 208.732C132.209 208.732 133.151 208.325 135.212 206.265C136.568 204.909 137.829 203.95 138.015 204.135C138.735 204.856 134.497 215.325 133.485 215.325C132.912 215.325 131.464 216.149 130.267 217.157C127.726 219.295 127.616 219.305 122.342 217.889C117.191 216.507 117.477 216.476 115.611 218.622C114.64 219.739 113.239 220.454 112.019 220.454C109.807 220.454 95.2349 213.446 95.2349 212.381C95.2349 212.013 96.4716 209.795 97.9823 207.454C99.4936 205.112 101.554 201.635 102.561 199.728L104.393 196.26L105.707 198.06C106.429 199.05 108.191 200.583 109.621 201.467ZM141.39 201.362C141.39 203.084 140.456 203.761 138.905 203.166C138.022 202.827 137.927 202.399 138.498 201.332C139.47 199.518 141.39 199.538 141.39 201.362ZM116.237 203.359C115.968 203.627 115.528 203.627 115.26 203.359C114.991 203.09 115.211 202.871 115.748 202.871C116.285 202.871 116.505 203.09 116.237 203.359ZM117.946 203.969C117.946 204.171 117.781 204.336 117.58 204.336C117.378 204.336 117.213 204.171 117.213 203.969C117.213 203.768 117.378 203.603 117.58 203.603C117.781 203.603 117.946 203.768 117.946 203.969ZM312.938 205.044C315.505 205.837 318.259 206.975 319.059 207.573C320.123 208.367 319.233 208.258 315.752 207.17C306.482 204.271 295.03 204.613 283.629 208.132C281.072 208.921 278.831 209.418 278.65 209.236C278.276 208.863 288.025 205.202 291.724 204.326C296.691 203.149 308.047 203.534 312.938 205.044ZM139.378 209.693C138.777 211.851 137.899 213.616 137.425 213.616C136.836 213.616 137.031 212.282 138.04 209.4C139.876 204.16 140.858 204.375 139.378 209.693ZM115.382 207.266C115.631 207.669 115.301 207.999 114.649 207.999C113.997 207.999 113.668 207.669 113.917 207.266C114.166 206.863 114.495 206.534 114.649 206.534C114.803 206.534 115.133 206.863 115.382 207.266ZM92.3045 218.629C94.4188 222.849 96.9141 223.783 99.2328 221.221C100.864 219.419 104.056 219.279 108.422 220.82C112.606 222.296 113.313 222.223 115.449 220.087C117.442 218.094 118.97 217.845 122.046 219.015C125.416 220.296 128.814 220.085 130.593 218.483C133.471 215.894 133.817 215.985 138.441 220.552C142.961 225.016 142.969 225.032 140.535 224.573C139.193 224.32 132.983 223.912 126.737 223.668C117.863 223.32 114.044 223.48 109.257 224.402C102.069 225.786 98.8614 225.869 94.9031 224.769C91.3338 223.779 87.1762 219.788 87.1762 217.352C87.1762 213.165 89.9088 213.846 92.3045 218.629ZM137.128 216.217C136.603 216.742 136.261 216.785 136.261 216.327C136.261 215.349 137.128 214.482 137.617 214.971C137.825 215.179 137.605 215.74 137.128 216.217ZM208.309 220.534C210.06 221.332 212.153 224.661 211.387 225.428C211.172 225.642 210.393 225.27 209.653 224.601C208.193 223.279 204.395 222.93 204.395 224.117C204.395 224.52 205.15 224.849 206.074 224.849C207.631 224.849 214.651 231.01 213.873 231.694C213.295 232.203 203.573 235.264 203.378 234.998C200.592 231.217 200.001 229.857 200.422 228.183C200.976 225.973 200.364 225.728 199.292 227.732C198.788 228.673 198.773 229.781 199.248 231.029C199.671 232.14 199.688 232.908 199.29 232.908C198.219 232.908 196.336 229.805 196.336 228.039C196.336 225.937 199.692 221.986 202.526 220.752C205.304 219.542 206.067 219.513 208.309 220.534ZM26.4966 223.614C23.1624 227.164 24.6921 229.81 31.6747 232.571C35.3649 234.031 37.7041 235.618 40.921 238.845C44.8098 242.746 45.5263 243.165 48.3014 243.165C52.681 243.165 54.2085 242.145 54.2085 239.22C54.2085 236.27 50.7791 231.248 47.6655 229.638C46.4691 229.019 43.7196 228.512 41.5562 228.512C37.8206 228.512 37.4726 228.346 34.6594 225.216C31.2652 221.438 28.9648 220.987 26.4966 223.614ZM34.359 226.315C37.8477 229.915 37.984 229.978 42.3394 229.978C46.0501 229.978 47.1402 230.289 49.0501 231.896C51.6048 234.046 53.4759 237.228 53.4759 239.422C53.4759 241.228 53.0107 241.522 49.1923 242.133C46.2178 242.609 46.0457 242.518 41.7474 238.206C38.4367 234.885 36.1246 233.309 32.4073 231.839C27.975 230.086 25.6365 228.417 25.6365 227.006C25.6365 225.937 28.7347 222.651 29.7413 222.651C30.3289 222.651 32.4073 224.3 34.359 226.315ZM228.948 228.529C229.51 229.44 224.509 231.693 212.919 235.751C196.264 241.582 173.937 246.531 161.676 247.109C158.376 247.265 156.665 247.249 157.874 247.074C181.342 243.681 204.485 237.503 221.611 230.061C227.225 227.622 228.254 227.407 228.948 228.529ZM356.908 229.299C349.801 230.222 341.475 232.518 332.991 235.898C321.256 240.573 319.779 242.23 328.571 240.862C333.498 240.094 354.528 240.434 362.119 241.404C366.871 242.01 370.22 241.275 372.875 239.041C377.323 235.298 374.892 230.596 367.813 229.254C363.517 228.439 363.54 228.438 356.908 229.299ZM371.659 231.951C374.544 233.409 374.128 236.302 370.698 238.633C367.903 240.533 367.854 240.533 350.551 238.87C346.522 238.483 340.093 238.41 336.265 238.708C332.438 239.007 329.221 239.196 329.117 239.127C329.013 239.059 331.577 237.965 334.815 236.699C349.949 230.775 365.396 228.784 371.659 231.951ZM166.893 232.204C168.522 233.722 169.166 238.037 167.764 238.037C167.361 238.037 167.031 237.707 167.031 237.304C167.031 236.102 164.198 233.641 162.819 233.644C161.804 233.647 161.95 233.991 163.518 235.293C165.754 237.15 168.312 242.93 167.313 243.871C166.957 244.207 164.628 244.71 162.139 244.988L157.613 245.495L156.831 242.681C155.777 238.884 155.836 238.013 157.255 236.446C158.383 235.198 158.382 235.106 157.236 235.106C155.849 235.106 154.3 238.457 154.93 240.098C155.276 240.999 155.155 241.018 154.19 240.218C153.441 239.596 153.115 238.35 153.257 236.658C153.428 234.639 154.038 233.678 155.967 232.382C159.26 230.171 164.617 230.083 166.893 232.204ZM319.782 245.814C318.976 246.01 316.55 246.514 314.392 246.934C312.233 247.353 310.75 247.939 311.095 248.235C311.44 248.53 314.525 249.161 317.95 249.638C321.375 250.114 327.144 251.461 330.771 252.632C339.424 255.426 343.345 254.677 342.732 250.348C342.307 247.351 337.758 245.789 328.939 245.612C324.708 245.526 320.587 245.618 319.782 245.814ZM338.821 248.327C341.655 249.721 342.044 251.692 339.694 252.762C338.202 253.441 336.734 253.194 331.223 251.331C327.555 250.092 322.822 248.835 320.703 248.539C317.146 248.041 317.02 247.958 319.049 247.462C322.808 246.545 336.406 247.139 338.821 248.327ZM152.942 248.084C151.84 248.252 149.862 248.254 148.546 248.092C147.229 247.928 148.13 247.791 150.547 247.788C152.965 247.783 154.043 247.917 152.942 248.084ZM58.2049 256.685C54.0041 260.886 56.8027 263.332 65.145 262.751C75.0573 262.06 77.6888 259.275 71.1063 256.442C65.9706 254.233 60.5544 254.335 58.2049 256.685ZM71.2513 257.516C72.7576 258.234 73.9891 259.064 73.9891 259.362C73.9891 260.733 63.5317 262.607 60.0943 261.853C57.1763 261.212 56.7932 259.562 59.0408 257.314C60.7192 255.636 61.3464 255.471 64.7208 255.819C66.8073 256.034 69.7458 256.798 71.2513 257.516Z" fill="black"/>
</svg>
